<?xml version="1.0" encoding="UTF-8"?>
<svg version="1.1" viewBox="325 1032 450 220" xmlns="http://www.w3.org/2000/svg">
 <g fill="#adbfbf">
  <path d="m-40.001 470.48c-0.13762 0-0.26961 0.05469-0.36692 0.15201-0.097313 0.09732-0.15199 0.22928-0.15199 0.36692l1e-3 1160c0 0.2866 0.23232 0.5189 0.51891 0.5189l1159 1e-3c0.1375 0 0.2696-0.0547 0.3669-0.152s0.152-0.2294 0.152-0.3669l-1e-3 -1160c0-0.2866-0.2323-0.51892-0.5189-0.51892l-1159-0.00101z"/>
 </g>
 <g fill="#322e3b">
  <path d="m584.59 617.5c-1.7146 2.5775-1.0556 4.7737 1.9765 6.5888 3.4973 11.443 1.5206 21.766-5.9298 30.967-3.1125-1.2283-5.9668-0.56943-8.5654 1.9766-2.2244-1.0868-2.4445-2.4045-0.65895-3.9532-0.78795-1.706-1.4468-3.4628-1.9766-5.271-4.4778 6.6942-10.626 10.647-18.448 11.86-11.676-2.5352-23.318-5.1705-34.92-7.9064-1.0055-1.0118-2.3232-1.6706-3.9533-1.9767 0.87891-0.43924 1.7565-0.87844 2.6355-1.3176-2.5486-2.9929-2.5486-5.6285 0-7.9065-0.87904-0.8785-1.7566-1.7571-2.6355-2.6356 4.6083 1.2838 8.7815 2.821 12.519 4.6122 2.6923-1.4224 4.4488-3.6186 5.2711-6.5888 0.5457 0.60277 1.2045 1.042 1.9766 1.3178 3.8545-1.9143 7.8077-3.2322 11.86-3.9534 15.061 2.948 23.406-3.2014 25.037-18.448 5.5503-0.8088 10.821 0.0696 15.813 2.6355z"/>
 </g>
 <g fill="#2e2a3a">
  <path d="m543.74 633.31c-4.052 0.7212-8.0052 2.0391-11.86 3.9534-0.7721-0.2758-1.4309-0.715-1.9766-1.3178-0.82225 2.9702-2.5788 5.1664-5.2711 6.5888-3.7371-1.7912-7.9103-3.3284-12.519-4.6122 0.87891 0.87854 1.7565 1.7571 2.6355 2.6356-2.5486 2.278-2.5486 4.9136 0 7.9065-0.87904 0.4392-1.7566 0.8784-2.6355 1.3176 1.63 0.30603 2.9478 0.96486 3.9533 1.9767-3.0862 0.3622-3.0862 1.4602 0 3.2945 11.246 6.529 23.105 10.702 35.579 12.518-3.6199-0.413-7.1343 0.02636-10.542 1.3177 0.4784 0.90076 0.91714 1.7792 1.3178 2.6355 0.0515 1.4274 0.49155 2.7451 1.3177 3.9533-0.60203 1.0509-1.4811 1.4902-2.6355 1.3177-8.7855 1.2e-4 -17.57 1.2e-4 -26.355 1.2e-4 -7.838 0.35305-14.427-2.2826-19.766-7.9065-2.4246 8.2003-5.499 16.107-9.2242 23.72-0.8791-1.7566-1.7567-3.5144-2.6356-5.2711-1.1675 1.0872-1.6063 2.4049-1.3176 3.9532-9.5722-27.723-1.2269-48.148 25.037-61.275 12.529-1.3037 24.828-0.20556 36.897 3.2943z"/>
 </g>
 <g fill="#1f1c2d">
  <path d="m584.59 617.5c11.785 7.7772 16.397 18.759 13.836 32.944-3.0255 14.258-11.811 22.165-26.355 23.719 0.15025 4.1982-0.0697 8.1515-0.65895 11.86-2.6354 0-3.9532-1.3178-3.9532-3.9532 1.7369-4.039 1.7369-8.2113 0-12.519-5.163-1.524-10.434-2.1828-15.813-1.9767-12.474-1.8164-24.334-5.9894-35.579-12.518-3.0862-1.8343-3.0862-2.9323 0-3.2945 11.603 2.7359 23.244 5.3712 34.92 7.9064 7.8221-1.2123 13.971-5.1655 18.448-11.86 0.5298 1.8082 1.1886 3.565 1.9766 5.271-1.7856 1.5487-1.5654 2.8664 0.65895 3.9532 2.5986-2.546 5.4529-3.2048 8.5654-1.9766 7.4504-9.2015 9.4271-19.524 5.9298-30.967-3.0321-1.8151-3.6911-4.0113-1.9765-6.5888z"/>
 </g>
 <g fill="#d79e71">
  <path d="m551.65 667.57c5.379-0.20607 10.65 0.45275 15.813 1.9767 1.7369 4.3074 1.7369 8.4797 0 12.519-9.1465 1.6194-18.371 2.4984-27.673 2.6355 0.3413-4.7018 2.9768-6.4584 7.9065-5.2712-0.16077-3.6792-1.9186-6.3147-5.271-7.9065-0.40066-0.85634-0.8394-1.7347-1.3178-2.6355 3.4077-1.2914 6.9221-1.7307 10.542-1.3177z"/>
 </g>
 <g fill="#ebaf70">
  <path d="m547.7 670.21c5.8548-0.2932 12.005-0.2932 18.448 0v10.542c-5.2894 0.2186-10.561-0.00146-15.813-0.65893-1.7565-2.1967-1.7565-4.3925 0-6.5888-0.74587-1.3108-1.6248-2.4089-2.6355-3.2943z"/>
 </g>
 <g fill="#3d2221">
  <path d="m542.43 671.52c3.3524 1.5918 5.1102 4.2273 5.271 7.9065-4.9297-1.1872-7.5652 0.56937-7.9065 5.2712 9.302-0.13709 18.526-1.0161 27.673-2.6355 0 2.6355 1.3179 3.9532 3.9532 3.9532v15.813h-2.6354c-0.8792 0-1.3179-0.43886-1.3179-1.3178 2.8965 0.11986 3.3353-0.75784 1.3179-2.6355 0.2147-3.1061-0.00405-6.1803-0.65896-9.2242-0.36634 1.207-1.0251 2.0847-1.9767 2.6354 0-0.87893-0.43872-1.3177-1.3176-1.3177-0.1134-1.3126 0.3267-2.4103 1.3176-3.2944-6.9682 0.35853-13.997 0.5785-21.084 0.6588-1.87-1.2532-4.0653-1.692-6.5889-1.3176-0.44016-3.5421 0.4374-6.6165 2.6355-9.2244 1.1544 0.17247 2.0335-0.26683 2.6355-1.3177-0.82615-1.2082-1.2662-2.5259-1.3177-3.9533z"/>
 </g>
 <g fill="#d09a76">
  <path d="m526.61 709.74c-12.391-2.3062-17.662-9.7738-15.813-22.402v-1.3176c13.1-7.0276 18.809-2.8556 17.131 12.519-0.00268 3.9809-0.44263 7.7141-1.3177 11.201z"/>
 </g>
 <g fill="#1f1a2d">
  <path d="m514.75 676.8c2.3417 1.4496 4.9772 2.5487 7.9065 3.2944-3.5923 0.23986-7.1067 0.8987-10.542 1.9767-0.8262 1.2082-1.2663 2.5261-1.3178 3.9532v1.3176c-1.2518 4.3052-3.0097 8.4772-5.2709 12.519 1.2069 0.36636 2.0847 1.0252 2.6354 1.9767-6.15 4.8322-12.299 9.663-18.448 14.495-2.6302-8.3308-5.2658-16.676-7.9065-25.037-0.2887-1.5484 0.15015-2.866 1.3176-3.9532 0.87897 1.7567 1.7565 3.5146 2.6356 5.2711 3.7252-7.6127 6.7996-15.519 9.2242-23.72 5.3395 5.6239 11.928 8.2595 19.766 7.9065z"/>
 </g>
 <g fill="#d49d8a">
  <path d="m568.78 697.88c-2.2575-1.4957-3.1364-3.6924-2.6356-6.5888 0.95155-0.5507 1.6104-1.4284 1.9767-2.6354 0.65491 3.0439 0.87366 6.1182 0.65896 9.2242z"/>
 </g>
 <g fill="#170c0b">
  <path d="m564.83 689.97c0.87893 0 1.3176 0.43873 1.3176 1.3177-0.50075 2.8965 0.37815 5.0931 2.6356 6.5888 2.0174 1.8777 1.5786 2.7554-1.3179 2.6355-4.9086-0.36904-6.4464-3.0045-4.6121-7.9065 0.36621-1.207 1.0252-2.0847 1.9767-2.6355z"/>
 </g>
 <g fill="#26181c">
  <path d="m510.8 687.34c-1.8488 12.628 3.4223 20.096 15.813 22.402-0.87905 0.8789-1.7566 1.7565-2.6355 2.6355-7.5639-0.2556-12.835-3.7701-15.813-10.542-0.55072-0.9515-1.4285-1.6103-2.6354-1.9767 2.2612-4.0415 4.0191-8.2135 5.2709-12.519z"/>
 </g>
 <g fill="#221518">
  <path d="m520.02 688.66c1.5484-0.2887 2.8661 0.15016 3.9533 1.3178-1.1769 3.405-1.6156 6.9195-1.3178 10.542-1.7422 0.22388-3.2799-0.21486-4.612-1.3179-1.1742-3.9506-0.5153-7.4636 1.9765-10.542z"/>
 </g>
 <g fill="#d1895e">
  <path d="m564.83 689.97c-0.9515 0.55076-1.6104 1.4285-1.9767 2.6355-1.8343 4.902-0.29651 7.5375 4.6121 7.9065 0 0.8789 0.4387 1.3178 1.3179 1.3178-0.8843 1.775-0.8843 3.3127 0 4.612-2.5131 1.4087-4.2709 3.3854-5.2711 5.93-2.4906 2.754-4.6872 5.8284-6.5886 9.2242-8.2082 1.0595-14.577-2.0162-19.107-9.2242-0.69054-8.3678-0.4718-16.714 0.6588-25.037h6.5889c7.0867-0.0803 14.116-0.30027 21.084-0.6588-0.99095 0.88417-1.431 1.9818-1.3176 3.2944z"/>
 </g>
 <g fill="#d98c5d">
  <path d="m508.16 701.83c2.9782 6.7719 8.2492 10.286 15.813 10.542 0.1224 5.0879 0.3413 10.359 0.6588 15.813 0.25964 3.1113 1.7976 5.3078 4.6122 6.5887 1.2729 2.4984 1.7116 5.1339 1.3177 7.9065v5.271c-1.9713 8.045-2.8503 16.39-2.6355 25.037 0.96597 10.806-4.0849 15.199-15.154 13.177-11.993-0.84461-22.754-4.7978-32.285-11.86-0.67994-4.479-1.779-8.8711-3.2944-13.178-3.376-7.9012-6.6705-15.808-9.8831-23.719 8.1161-3.2759 14.705-8.547 19.766-15.813 1.3178-0.43884 2.1967-1.3177 2.6356-2.6355v-2.6355c6.1498-4.8322 12.298-9.6631 18.448-14.495z"/>
 </g>
 <g fill="#b25e45">
  <path d="m568.78 701.83h2.6354c6.0196-0.5496 7.9962 2.0859 5.93 7.9065-2.4999 1.9977-5.3554 2.8766-8.5653 2.6355h-5.2711c1.0002-2.5446 2.758-4.5213 5.2711-5.93-0.8843-1.2994-0.8843-2.837 0-4.612z"/>
 </g>
 <g fill="#504c53">
  <path d="m467.31 720.28c7.2147-1.3032 14.682-1.7422 22.402-1.3178-0.43884 1.3178-1.3178 2.1966-2.6356 2.6355-6.3317-1.3006-12.921-1.7408-19.766-1.3177z"/>
 </g>
 <g fill="#120e20">
  <path d="m467.31 720.28c6.8457-0.4231 13.435 0.0171 19.766 1.3177-5.0614 7.266-11.65 12.537-19.766 15.813-5.3355-3.1612-8.4098-7.9934-9.2242-14.495 2.6553-1.8765 5.7295-2.7542 9.2242-2.6355z"/>
 </g>
 <g fill="#181329">
  <path d="m514.75 676.8c8.7854 0 17.569 0 26.355-1.2e-4 -2.1981 2.6079-3.0757 5.6823-2.6355 9.2244 2.5236-0.3744 4.7189 0.06445 6.5889 1.3176h-6.5889c-1.1306 8.323-1.3493 16.67-0.6588 25.037 4.5304 7.208 10.899 10.284 19.107 9.2242 1.9015-3.3958 4.098-6.4702 6.5886-9.2242h5.2711c0.2186 9.2347 0 18.459-0.65896 27.673-2.4128 5.9258-6.8049 8.5614-13.177 7.9065-8.4626-0.5061-16.588-2.2626-24.378-5.2709 0.39395-2.7726-0.0448-5.408-1.3177-7.9065-2.8146-1.2809-4.3526-3.4774-4.6122-6.5887-0.3175-5.4542-0.5364-10.725-0.6588-15.813 0.8789-0.879 1.7564-1.7566 2.6355-2.6355 0.8751-3.4868 1.315-7.22 1.3177-11.201 1.6787-15.374-4.031-19.546-17.131-12.519 0.05146-1.4271 0.49158-2.745 1.3178-3.9532 3.4353-1.078 6.9497-1.7368 10.542-1.9767-2.9293-0.74574-5.5648-1.8449-7.9065-3.2944z"/>
 </g>
 <g fill="#49444a">
  <path d="m458.09 722.92c0.8144 6.5018 3.8887 11.334 9.2242 14.495 3.2126 7.9118 6.5071 15.818 9.8831 23.719 1.5154 4.3064 2.6145 8.6985 3.2944 13.178v2.6356c-10.9 2.5762-21.881 4.5528-32.944 5.9297-2.0504-11.485-2.928-23.125-2.6355-34.92-0.77748-11.186 3.6146-19.533 13.178-25.037z"/>
 </g>
 <g fill="#3d3a42">
  <path d="m440.96 749.27c-1.236 15.763-1.6762 31.576-1.3177 47.439-0.42957 3.7041-1.5272 7.2185-3.2943 10.542-0.43884 10.103-0.87908 20.205-1.3177 30.308 0.4057-21.364-7.282-39.153-23.061-53.369-5.831-2.9163-11.542-5.7705-17.131-8.5654 14.344-10.469 29.717-19.255 46.121-26.355z"/>
 </g>
 <g fill="#313440">
  <path d="m554.28 767.72c9.1188 8.5654 14.829 19.107 17.131 31.626-2.1966 3.5144-4.3921 3.5144-6.5886 0-0.0963-7.0908-1.8542-13.68-5.2711-19.766-0.6615-1.3454-1.5392-1.5654-2.6354-0.65884-2.7898 2.281-4.7663 5.1366-5.9299 8.5653-3.4777-5.4541-7.2109-10.725-11.201-15.813 0.77744-1.7117 2.0953-2.8095 3.9532-3.2944 3.4868-0.65478 7.0012-0.87485 10.542-0.65881z"/>
 </g>
 <g fill="#19162c">
  <path d="m444.91 747.95c-0.2925 11.795 0.58507 23.435 2.6355 34.92 11.062-1.3769 22.043-3.3535 32.944-5.9297 2.9873 7.2067 5.1827 14.674 6.5887 22.402 0.78137 6.8773-0.53638 7.7562-3.9533 2.6354-0.83404 3.2892-1.2729 6.3635-1.3176 9.2244-0.86195-6.7996-3.9362-12.291-9.2243-16.472-11.061-0.72085-22.042-0.06216-32.944 1.9765-0.35846-15.863 0.08172-31.676 1.3177-47.439 1.1741-0.8037 2.4918-1.2425 3.9533-1.3177z"/>
 </g>
 <g fill="#181725">
  <path d="m530.57 747.95c9.4193 4.7188 17.326 11.308 23.72 19.766-3.5408-0.21604-7.0552 0.00403-10.542 0.65881-1.8579 0.48499-3.1758 1.5828-3.9532 3.2944 3.99 5.0879 7.7232 10.359 11.201 15.813 1.1636-3.4287 3.1401-6.2843 5.9299-8.5653 1.0962-0.90661 1.9739-0.68652 2.6354 0.65884 3.4169 6.0866 5.1748 12.676 5.2711 19.766-4.6926-2.0399-9.0847-4.6754-13.178-7.9066-1.2728 2.4986-1.7117 5.134-1.3177 7.9066-1.0899 6.7877-1.7487 13.815-1.9767 21.084-0.8789-2.6356-1.7565-5.271-2.6354-7.9065-1.4667 1.0608-3.0033 1.9397-4.6122 2.6355-1.1305-13.448-3.546-26.625-7.2475-39.532-1.4627-2.0252-3.4393-2.903-5.9299-2.6354-0.21483-8.6471 0.66417-16.992 2.6355-25.037z"/>
 </g>
 <g fill="#494348">
  <path d="m394.84 775.63c5.5886 2.7949 11.3 5.6492 17.131 8.5654 15.779 14.216 23.466 32.005 23.061 53.369 0.4386-10.103 0.87884-20.205 1.3177-30.308 1.7671-3.3235 2.8648-6.8379 3.2943-10.542 10.902-2.0387 21.883-2.6974 32.944-1.9765 5.2881 4.1811 8.3624 9.6723 9.2243 16.472 2.824 21.315 5.8995 42.399 9.2242 63.252-1.0134 11.848-1.8909 23.708-2.6355 35.579v2.6356c-4.5963 48.062-11.624 95.94-21.084 143.63-2.9716 10.181-4.728 20.723-5.271 31.626-12.828-0.6656-25.566-1.9833-38.215-3.9533-0.79987 0.1633-1.2387 0.6021-1.3177 1.3176-1.97-0.6444-3.7279-1.5218-5.2711-2.6352h5.2711c0.27406-16.721-0.16608-33.413-1.3178-50.075 7.4045 1.8934 11.796-0.7419 13.178-7.9066h-10.542c-0.22016-43.927 0-87.852 0.65893-131.77 1.8553-12.007 4.0521-23.867 6.5887-35.579-9.1255 20.453-17.91 41.097-26.355 61.934-1.1056 5.4516-2.2046 10.723-3.2944 15.813 0.21075-2.2387-0.00788-4.4354-0.65888-6.5886-6.4755 17.88-10.429 36.329-11.86 55.346-1.5787 33.804-2.2376 67.626-1.9766 101.47h-9.2243c-8.796-0.2187-17.581-2e-4 -26.355 0.6588-0.73266 0.5046-1.1714 1.1635-1.3177 1.9767h-1.3178c-1.3585-0.9871-2.8964-1.8645-4.612-2.6357-9.733-50.661-11.928-101.61-6.5888-152.86 5.669-36.205 14.014-71.784 25.037-106.74 4.3973-13.624 10.546-26.363 18.448-38.215 4.0561-4.7241 8.6681-8.6774 13.836-11.86z"/>
 </g>
 <g fill="#27232e">
  <path d="m487.08 799.35c2.0057 6.2895 3.3234 12.878 3.9532 19.766 0 4.3921 0 8.7854 7e-5 13.178v42.168c-3.3247-20.854-6.4003-41.937-9.2242-63.252 0.04475-2.8608 0.48358-5.9352 1.3176-9.2244 3.4169 5.1209 4.7347 4.242 3.9533-2.6354z"/>
 </g>
 <g fill="#e6d3bf">
  <path d="m527.93 772.99c2.4906-0.2676 4.4673 0.6101 5.9299 2.6354 3.7015 12.907 6.117 26.085 7.2475 39.532 7.5534 44.695 12.386 89.499 14.495 134.41 1.1029 24.581 1.5418 49.178 1.3179 73.794 0.78 11.773-0.099 23.194-2.6356 34.261-18.419 1.1703-36.868 1.6105-55.346 1.318h-5.2709v-1.3179c6.2315-30.962 11.064-62.149 14.495-93.56 3.6146-27.053 4.7123-54.288 3.2944-81.701-4.0811-22.121-10.889-43.205-20.425-63.252-0.62988-6.888-1.9476-13.477-3.9532-19.766-1.4061-7.7273-3.6014-15.195-6.5887-22.402v-2.6356c9.5313 7.0619 20.292 11.015 32.285 11.86 11.069 2.0214 16.12-2.3718 15.154-13.177z"/>
 </g>
 <g fill="#272430">
  <path d="m550.33 799.35c0.06723 18.467 0.72623 36.915 1.9766 55.346 2.932 18.885 5.3489 37.772 7.2477 56.663v10.542c-0.8551 6.1089-1.514 12.258-1.9766 18.448-0.43884-3.9532-0.879-7.9065-1.3177-11.86-0.65746 7.0144-0.87756 14.042-0.65896 21.084-2.1097-44.912-6.9419-89.715-14.495-134.41 1.6089-0.6958 3.1455-1.5747 4.6122-2.6355 0.8789 2.6355 1.7565 5.2709 2.6354 7.9065 0.228-7.2687 0.8868-14.296 1.9767-21.084z"/>
 </g>
 <g fill="#494349">
  <path d="m564.83 799.35c2.1966 3.5144 4.392 3.5144 6.5886 0 4.1708 11.359 6.8062 23.219 7.9066 35.579-1.5416 24.292-2.8595 48.888-3.9532 73.794v7.9065c-0.87891 8.5811-1.7565 17.366-2.6354 26.355v-7.9065c-0.62856-1.2887-1.5064-2.3864-2.6356-3.2943 0.98169-3.3878 1.4219-6.6824 1.3177-9.8831-0.2201-0.43874-0.43883-0.87904-0.6588-1.3177-1.2058 1.0908-2.0834 2.4088-2.6355 3.9532-5.8784-2.5539-8.734-6.9474-8.5654-13.178-1.8988-18.891-4.3157-37.778-7.2477-56.663-1.2504-18.43-1.9094-36.879-1.9766-55.346-0.39393-2.7726 0.04493-5.4081 1.3177-7.9066 4.0929 3.2312 8.485 5.8667 13.178 7.9066z"/>
 </g>
 <g fill="#242032">
  <path d="m579.32 834.93c3.2153 20.467 7.6074 40.672 13.178 60.616-0.8408 1.3494-1.7197 2.6671-2.6356 3.9533 1.0898 4.3263 1.5287 8.7182 1.3179 13.178-1.0319-2.8728-2.3496-5.9472-3.9533-9.2244-2.173-1.5891-4.1496-3.3457-5.9299-5.271-0.4059 1.0647-1.0647 1.9436-1.9767 2.6356-1.6604-2.4418-1.6604-4.8573 0-7.2478-0.82495-0.98825-1.4838-2.0872-1.9766-3.2943-0.22924 6.3926-0.88804 12.542-1.9767 18.449 1.0937-24.906 2.4116-49.503 3.9532-73.794z"/>
 </g>
 <g fill="#926d51">
  <path d="m491.03 832.29c1.53 20.857 1.7499 41.941 0.65893 63.252-1.0476 5.0232-2.1467 9.8553-3.2944 14.495 0.74456-11.872 1.6221-23.731 2.6355-35.579v-42.168z"/>
 </g>
 <g fill="#1d1a2f">
  <path d="m417.24 1082.7c-7.249-0.1741-14.058-1.9319-20.425-5.2713-0.8789-18.887-0.8789-37.776 0-56.663 2.3588-28.512 3.8967-57.064 4.6122-85.654 1.0898-5.0903 2.1888-10.361 3.2944-15.813 8.4454-20.838 17.229-41.481 26.355-61.934-2.5366 11.712-4.7334 23.572-6.5887 35.579-0.65893 43.923-0.87909 87.848-0.65893 131.77h10.542c-1.3811 7.1647-5.7731 9.8-13.178 7.9066 1.1517 16.662 1.5919 33.354 1.3178 50.075h-5.2711z"/>
 </g>
 <g fill="#1a162d">
  <path d="m591.18 912.67c3.0928 50.098 21.98 93.144 56.663 129.14-1.9424 1.2336-3.2602 2.9913-3.9533 5.2711-0.879 0.4387-1.7566 0.879-2.6356 1.3178-2.3823 0.0118-4.5791-0.6471-6.5886-1.9767-17.798-16.26-34.928-33.172-51.392-50.733-3.8861-7.7671-5.8627-16.112-5.93-25.037-1.6117-17.973-2.2705-35.982-1.9767-54.028v-7.9065c1.0886-5.9062 1.7474-12.056 1.9767-18.449 0.4928 1.2071 1.1516 2.3061 1.9766 3.2943-1.6604 2.3905-1.6604 4.806 0 7.2478 0.912-0.69201 1.5708-1.5709 1.9767-2.6356 1.7803 1.9253 3.757 3.6819 5.9299 5.271 1.6037 3.2772 2.9214 6.3516 3.9533 9.2244z"/>
 </g>
 <g fill="#b17f51">
  <path d="m491.03 819.11c9.5366 20.047 16.344 41.131 20.425 63.252 1.4179 27.413 0.32019 54.647-3.2944 81.701-2.0965 4.8808-3.1942 10.152-3.2944 15.813-0.43872-0.43894-0.87895-0.87904-1.3177-1.318-1.6235 3.5978-2.7213 3.3776-3.2944-0.65869 0.99097-2.8385 1.211-5.6928 0.65887-8.5655-0.4387 0.87893-0.87896 1.7566-1.3177 2.6356-0.90796-1.1292-2.0057-2.0072-3.2944-2.6356-0.95015 2.8808-1.8277 5.7361-2.6354 8.5655 1.5206 1.2044 1.3005 2.3021-0.65895 3.2943-0.43877-3.0744-0.87895-6.1499-1.3177-9.2241-2.3813 3.4946-3.699 7.0092-3.9532 10.542-1.1227-7.494-2.2204-14.962-3.2944-22.402 0.43873-3.0742 0.87896-6.15 1.3178-9.2244 0.87891 5.2711 1.7565 10.542 2.6354 15.813 0.4387-2.6352 0.87896-5.2709 1.3178-7.9065-1.8685-6.9997-2.7463-14.247-2.6356-21.743 0.41632-8.1332 0.85516-16.26 1.3178-24.378v-2.6356c1.1478-4.6399 2.2468-9.472 3.2944-14.495 1.0909-21.311 0.87103-42.395-0.65893-63.252-7e-5 -4.3922-7e-5 -8.7855-7e-5 -13.178z"/>
 </g>
 <g fill="#3b3a43">
  <path d="m559.56 911.36c-0.16857 6.2302 2.687 10.624 8.5654 13.178 0.5521-1.5444 1.4297-2.8624 2.6355-3.9532 0.21997 0.4387 0.4387 0.879 0.6588 1.3177 0.10414 3.2007-0.33605 6.4953-1.3177 9.8831 1.1293 0.90795 2.0071 2.0056 2.6356 3.2943v7.9065c0.8789-8.9884 1.7564-17.774 2.6354-26.355-0.29383 18.045 0.36499 36.055 1.9767 54.028 0.06726 8.9252 2.0438 17.27 5.93 25.037 2.6327 21.504 7.0261 43.027 13.177 64.57-1.3126 0.1132-2.4103-0.3267-3.2945-1.3177-6.5282-18.101-12.239-36.549-17.131-55.346-5.7797-27.364-11.271-54.598-16.472-81.701v-10.542z"/>
 </g>
 <g fill="#a9784e">
  <path d="m488.4 912.67c-0.4626 8.1187-0.90144 16.245-1.3178 24.378-0.11078 7.4955 0.76703 14.743 2.6356 21.743-0.43884 2.6356-0.8791 5.2712-1.3178 7.9065-0.87898-5.2709-1.7565-10.542-2.6354-15.813-0.43885 3.0744-0.87908 6.1502-1.3178 9.2244 1.074 7.4399 2.1717 14.908 3.2944 22.402 0.25422-3.5327 1.572-7.0472 3.9532-10.542 0.43872 3.0742 0.8789 6.1498 1.3177 9.2241 1.9594-0.99217 2.1796-2.0899 0.65895-3.2943 0.80775-2.8294 1.6853-5.6847 2.6354-8.5655 1.2887 0.62844 2.3865 1.5064 3.2944 2.6356 0.43872-0.87905 0.87898-1.7567 1.3177-2.6356 0.55213 2.8727 0.3321 5.727-0.65887 8.5655 0.57317 4.0362 1.671 4.2564 3.2944 0.65869 0.43873 0.43895 0.87896 0.87905 1.3177 1.318 0.10015-5.6611 1.1979-10.932 3.2944-15.813-3.4313 31.411-8.2637 62.598-14.495 93.56-8.8237 0.1437-17.609-0.295-26.355-1.3176 9.4602-47.695 16.488-95.573 21.084-143.63z"/>
 </g>
 <g fill="#3e3b42">
  <path d="m592.5 895.54c6.3501 20.541 14.916 40.307 25.696 59.299 14.619 24.917 28.894 49.955 42.827 75.112-1.7566 0.8789-3.0744 2.1967-3.9533 3.9532-3.0743 2.6356-6.15 5.2711-9.2242 7.9065-34.683-35.996-53.57-79.041-56.663-129.14 0.21083-4.4594-0.22803-8.8513-1.3179-13.178 0.9159-1.2862 1.7948-2.6039 2.6356-3.9533z"/>
 </g>
 <g fill="#884739">
  <path d="m657.07 1033.9c0.84865 3.4843 3.0454 5.681 6.5886 6.5889 1.4258 1.4416 2.3035 3.1983 2.6356 5.2708-1.7565 3.9533-3.5145 7.9065-5.271 11.86 0.37023 3.0018 2.128 4.5398 5.271 4.6122-3.4591 1.8357-3.4591 3.3722 0 4.6122-3.1112-0.2294-6.1856-0.6681-9.2243-1.3179h-1.3177c-0.45084-1.1043-1.3284-1.5445-2.6356-1.3176v-1.3178c1.6552 0.0514 2.973-0.6075 3.9534-1.9766-3.8373-5.3698-8.2307-9.982-13.178-13.836 0.69314-2.2798 2.0109-4.0375 3.9533-5.2711 3.0742-2.6354 6.1499-5.2709 9.2242-7.9065z"/>
 </g>
 <g fill="#b1a4a2">
  <path d="m556.92 1023.4c1.3085 11.18 1.7473 22.601 1.3176 34.261h-3.9532c2.5366-11.068 3.4156-22.488 2.6356-34.261z"/>
 </g>
 <g fill="#4b1a13">
  <path d="m674.2 1041.8c1.9304 1.1938 3.2483 2.9507 3.9532 5.2711-0.6655 1.8701-1.9833 2.7476-3.9532 2.6354-1.6367-2.7816-1.6367-5.4171 0-7.9065z"/>
 </g>
 <g fill="#ce835c">
  <path d="m661.02 1030c5.2182 1.7251 10.489 3.7016 15.813 5.9298 3.7332 3.7332 7.4678 7.4676 11.201 11.201 0.8789 4.8323 0.8789 9.663 0 14.495-1.0753 1.7434-2.6132 2.6211-4.6123 2.6356v-6.5888c-3.1757 0.7422-6.25 1.401-9.2241 1.9768 3.4972-2.7305 3.0571-4.9272-1.3178-6.5887 0.991-0.8842 1.4309-1.9819 1.3178-3.2945 1.9699 0.1122 3.2877-0.7653 3.9532-2.6354-0.70495-2.3204-2.0228-4.0773-3.9532-5.2711-0.07911-0.7157-0.51796-1.1544-1.3178-1.3176-1.5062 4.7767-3.2628 4.9955-5.2711 0.6589-1.2492-0.6366-2.5669-0.8553-3.9533-0.6589-3.5432-0.9079-5.74-3.1046-6.5886-6.5889 0.8789-1.7565 2.1967-3.0743 3.9533-3.9532z"/>
 </g>
 <g fill="#be6f50">
  <path d="m663.66 1040.5c1.3864-0.1964 2.7041 0.0223 3.9533 0.6589 2.0083 4.3366 3.7649 4.1178 5.2711-0.6589 0.7998 0.1632 1.2386 0.6019 1.3178 1.3176-1.6367 2.4894-1.6367 5.1249 0 7.9065 0.11314 1.3126-0.32676 2.4103-1.3178 3.2945 4.3749 1.6615 4.815 3.8582 1.3178 6.5887 2.9741-0.5758 6.0484-1.2346 9.2241-1.9768v6.5888c0 0.8789-0.43874 1.3177-1.3176 1.3177-5.2078 1.0177-10.479 1.4564-15.813 1.318-3.4591-1.24-3.4591-2.7765 0-4.6122-3.143-0.0724-4.9008-1.6104-5.271-4.6122 1.7565-3.9533 3.5145-7.9065 5.271-11.86-0.33216-2.0725-1.2099-3.8292-2.6356-5.2708z"/>
 </g>
 <g fill="#a8614d">
  <path d="m643.89 1047.1c4.9468 3.8544 9.3402 8.4666 13.178 13.836-0.9803 1.3691-2.2981 2.028-3.9534 1.9766-8.2596-1.2373-12.213-6.0695-11.86-14.495 0.87904-0.4388 1.7566-0.8791 2.6356-1.3178z"/>
 </g>
 <g fill="#18142a">
  <path d="m467.31 1056.3c8.7459 1.0226 17.531 1.4613 26.355 1.3176v1.3179c-3.4301 12.625-10.019 23.167-19.766 31.626-1.5588 1.323-3.3155 2.4219-5.271 3.2943-11.356 2.3444-22.557 5.1998-33.603 8.5654-1.8976-0.8539-3.8743-1.2927-5.9299-1.3178-0.43884-0.8791-0.8789-1.7565-1.3177-2.6354-2.0136-4.2814-3.7702-8.6736-5.2709-13.178 0.07898-0.7155 0.51782-1.1543 1.3177-1.3176 12.649 1.97 25.386 3.2877 38.215 3.9533 0.54292-10.903 2.2994-21.445 5.271-31.626z"/>
 </g>
 <g fill="#25262d">
  <path d="m657.07 1065.5c3.0387 0.6498 6.1131 1.0885 9.2243 1.3179 5.3342 0.1384 10.605-0.3003 15.813-1.318 6.5348 14.828 13.782 29.323 21.743 43.486 0.6456 1.7039 0.8657 3.4618 0.6588 5.2711-0.93434 1.1913-2.2521 1.63-3.9533 1.3176-7.5652-15.503-14.593-31.316-21.084-47.439h-3.9532c4.6189 14.744 8.5721 29.678 11.86 44.803 0.08584 0.5772-0.13303 1.0174-0.6588 1.3178-2.9082-10.313-6.4214-20.415-10.542-30.308-0.47557 3.8701 0.18325 7.6034 1.9767 11.201-0.09216 1.0082-0.531 1.6669-1.3178 1.9766-3.608-9.5021-6.4636-19.165-8.5654-28.99-0.22007 0.8789-0.4388 1.7566-0.6589 2.6355 1.8778 6.2238 2.7568 12.592 2.6356 19.107-1.0688 16.895-1.5076 33.806-1.3177 50.733-1.0121 1.0056-1.671 2.3232-1.9767 3.9532-0.65884-8.7735-0.8776-17.559-0.65884-26.355 0.43738-16.715-0.00136-33.406-1.3178-50.075-1.5522 3.8096-2.4313 7.7628-2.6355 11.86-3.6819 26.974-7.1962 53.77-10.542 80.383-0.62327 1.8528-1.9411 2.7317-3.9532 2.6357 3.2494-27.752 7.4228-55.425 12.519-83.018 0.87903-3.5145 0.87903-7.0275 0-10.542-4.0402 24.595-9.0911 48.973-15.154 73.135 0.18859 7.0247 0.18859 14.273 0 21.743 0 0.8789-0.43872 1.3179-1.3177 1.3179h-5.271c-0.29123-3.662 0.14747-7.1766 1.3178-10.542 6.3857-29.733 12.096-59.601 17.131-89.607z"/>
 </g>
 <g fill="#16152c">
  <path d="m559.56 921.9c5.2013 27.102 10.692 54.336 16.472 81.701 4.8915 18.796 10.603 37.245 17.131 55.346 0.8842 0.991 1.9818 1.4309 3.2945 1.3177 2.9911 6.6941 4.7478 13.722 5.2709 21.084-15.36-1.8645-30.733-3.6223-46.121-5.2709v51.392c-1.0937 11.628-1.7527 23.488-1.9765 35.579-11.08-29.279-22.939-58.27-35.579-86.972-5.0194-7.4466-11.388-13.156-19.107-17.131 18.478 0.2925 36.926-0.1477 55.346-1.318h3.9532c0.4297-11.661-0.00914-23.082-1.3176-34.261 0.2239-24.616-0.215-49.213-1.3179-73.794-0.2186-7.0421 0.0015-14.07 0.65896-21.084 0.43874 3.9532 0.8789 7.9065 1.3177 11.86 0.46253-6.1908 1.1215-12.34 1.9766-18.448z"/>
 </g>
 <g fill="#353f49">
  <path d="m493.67 1058.9h5.2709c7.7194 3.9742 14.088 9.6841 19.107 17.131 12.64 28.702 24.5 57.692 35.579 86.972 0.22388-12.092 0.88284-23.952 1.9765-35.579-0.2201 14.502 0 28.997 0.65896 43.486 9.0793 29.449 16.327 59.318 21.743 89.607 4.0692 16.92 8.9002 33.612 14.495 50.075-1.314 0.0398-2.1929-0.6191-2.6356-1.9766-1.4442-3.8308-2.9807-7.5651-4.6121-11.201-1.8488 4.2288-3.1665 8.6209-3.9532 13.178-1.725 3.1509-3.0428 3.1509-3.9532 0-0.43884 0.8789-0.8789 1.7566-1.3178 2.6355-1.5957-10.358-3.3524-20.899-5.271-31.626-1.6658 0.1846-3.2035 0.1846-4.6122 0 1.6195-1.029 3.3761-1.6881 5.271-1.9767-3.2943-1.5378-6.5886-3.0742-9.8831-4.612-1.4297 2.8423-2.9663 3.0623-4.612 0.6589-2.1242-0.9487-4.101-0.73-5.93 0.659-1.7566-0.8792-3.5145-1.7569-5.271-2.6358 5.4423 21.159 11.153 42.243 17.131 63.252-5.2091-14.37-10.041-28.865-14.495-43.486-0.93554-1.9412-2.4722-2.8201-4.6121-2.6355 1.6472 3.2522 1.4271 6.3264-0.65884 9.2244-2.2138-1.4539-4.1905-1.0149-5.9299 1.3176-0.87903-2.6355-1.7566-5.271-2.6355-7.9065-1.5392 3.9126-3.2957 4.3513-5.271 1.3176-1.0516 0.6023-1.4905 1.4812-1.3178 2.6355-0.8789-1.3176-1.7564-2.6355-2.6355-3.9531-3.4169-13.326-7.3701-26.504-11.86-39.533-0.2544-4.6292 0.6245-9.0213 2.6355-13.177 1.0647 0.4057 1.9437 1.0646 2.6355 1.9766-1.3889 1.829-1.6077 3.8055-0.6588 5.9299 0.63635-1.2493 0.8551-2.5669 0.6588-3.9532h5.271c-0.1963 1.3863 0.02235 2.7039 0.6588 3.9532 0.40065-2.5577 1.4983-4.7532 3.2944-6.5889-1.1544-0.9895-2.4722-1.6485-3.9532-1.9765 2.1862-2.426 4.8217-3.9638 7.9065-4.6122-2.9755-13.979-7.1488-27.596-12.519-40.85-0.43885 0.4387-0.87905 0.8789-1.3178 1.3176-1.0346-2.3535-2.571-4.3301-4.6122-5.9299 1.1292-0.9077 2.007-2.0056 2.6355-3.2943-15.827-29.017-30.982-58.446-45.462-88.289-0.76428-4.0154-0.32556-4.4556 1.3178-1.318 1.3296-2.0094 1.9885-4.2063 1.9766-6.5885 9.7474-8.4589 16.336-19.001 19.766-31.626z"/>
 </g>
 <g fill="#241821">
  <path d="m377.71 1085.3v1.318c-9.1082 1.2675-18.333 1.7061-27.673 1.3175 0.1463-0.8132 0.58508-1.4721 1.3177-1.9767 8.7736-0.659 17.559-0.8775 26.355-0.6588z"/>
 </g>
 <g fill="#939ba3">
  <path d="m666.29 1118.2h-1.3178c0.40443-13.025-0.47435-25.762-2.6355-38.215 0.20424-4.0969 1.0833-8.0501 2.6355-11.86 1.3164 16.668 1.7551 33.36 1.3178 50.075z"/>
 </g>
 <g fill="#d78456">
  <path d="m348.72 1087.9h1.3178c9.02 0.8789 18.244 1.7566 27.673 2.6357-3.8834 1.0819-7.8366 1.7406-11.86 1.9764 15.016 0.344 15.456 3.4185 1.3178 9.2243 1.7988 2.2165 3.7754 2.4365 5.9299 0.659 0.62067 2.3007 1.4996 4.4975 2.6355 6.5887 0.43878-0.8791 0.87896-1.7565 1.3178-2.6354-0.84339 4.3523-0.62465 8.7457 0.65887 13.177-0.30702 2.0584-1.186 3.815-2.6355 5.271-5.636 1.4459-11.346 1.4457-17.131-1e-4 -1.6841 0.3716-3.0018 1.2505-3.9533 2.6355 0-0.8789-0.43877-1.3176-1.3177-1.3176 0.75904-3.0084-0.55872-3.4486-3.9533-1.3179-0.30695-2.0583-1.1859-3.8147-2.6354-5.271v-26.355c0.30702-2.0582 1.186-3.8145 2.6354-5.2708z"/>
 </g>
 <g fill="#ca7c55">
  <path d="m377.71 1086.6c3.322 2.9002 6.6165 5.9746 9.8832 9.2241 1.4824 6.7811 3.0189 13.37 4.6121 19.766v2.6356c-3.2548-4.3787-6.3304-8.9908-9.2243-13.836-1.4495-0.5692-2.3285 0.0896-2.6355 1.9767 0.45598 1.7775 0.89478 3.5354 1.3178 5.2709-1.2308 1.4074-1.671 3.164-1.3178 5.271-0.87897 0.8789-1.7565 1.7566-2.6355 2.6354-1.2835-4.4316-1.5023-8.825-0.65887-13.177-0.43879 0.8789-0.87897 1.7563-1.3178 2.6354-1.1359-2.0912-2.0148-4.288-2.6355-6.5887-2.1545 1.7775-4.1311 1.5575-5.9299-0.659 14.138-5.8058 13.698-8.8803-1.3178-9.2243 4.0232-0.2358 7.9764-0.8945 11.86-1.9764-9.4285-0.8791-18.653-1.7568-27.673-2.6357 9.3402 0.3886 18.565-0.05 27.673-1.3175z"/>
 </g>
 <g fill="#301818">
  <path d="m392.2 1118.2c-1.5444 1.5879-3.301 1.5879-5.271 1e-4 -1.8276-2.2535-3.5856-4.4502-5.271-6.5888-0.42303-1.7355-0.86183-3.4934-1.3178-5.2709 0.30701-1.8871 1.186-2.5459 2.6355-1.9767 2.8938 4.8455 5.9694 9.4576 9.2243 13.836z"/>
 </g>
 <g fill="#34333c">
  <path d="m687.38 1113c1.8621 3.5831 2.7411 7.5363 2.6356 11.86-0.8789 0.439-1.7564 0.8789-2.6356 1.3179 0-0.8789-0.4387-1.3179-1.3176-1.3179-1.9648-9.6287-5.0389-18.853-9.2242-27.673 0.78675-0.3097 1.2256-0.9684 1.3178-1.9766-1.7934-3.5974-2.4523-7.3307-1.9767-11.201 4.1206 9.8935 7.6338 19.995 10.542 30.308 0.52577-0.3004 0.74464-0.7406 0.6588-1.3178z"/>
 </g>
 <g fill="#262528">
  <path d="m653.12 1064.2c1.3072-0.2269 2.1848 0.2133 2.6356 1.3176-10.152 27.378-19.816 55.05-28.99 83.018-3.0204 7.6483-5.6559 15.555-7.9065 23.72-0.87903 0.4389-1.7566 0.8789-2.6355 1.3178 1.7473-7.8721 3.5038-15.779 5.2709-23.719 9.0886-25.723 18.094-51.639 27.014-77.747 1.2203-2.8886 2.758-5.524 4.612-7.9064z"/>
 </g>
 <g fill="#8a2b48">
  <path d="m771.71 1177.5c-5.3302-4.8756-9.7223-9.9266-13.178-15.154 1.6433-1.9212 1.6433-3.8978 0-5.9299 2.5658-2.3403 3.0046-4.9758 1.3178-7.9065-0.8789 0.8789-1.7565 1.7566-2.6354 2.6356-1.273-2.4985-1.7118-5.1341-1.3179-7.9066-1.5483 0.2887-2.8661-0.1503-3.9532-1.3176 1.0885-1.2533 1.3072-2.571 0.6588-3.9533-1.2161 1.659-2.3152 3.4157-3.2943 5.2709-0.9895-1.1543-1.6483-2.472-1.9766-3.9533-0.4823 2.5723-1.58 4.7678-3.2944 6.5889-5.0456-6.3859-6.8023-13.633-5.271-21.743-0.6707-1.5407-1.7683-2.6383-3.2943-3.2944-0.19373-4.0469-1.2915-7.7799-3.2944-11.201 0.60216-0.5456 1.0424-1.2045 1.3178-1.9767-3.1455-2.8843-6.6585-5.0812-10.542-6.5888 6.1499-5.1736 12.959-8.2479 20.425-9.2242 9.6592 28.553 19.102 57.103 28.332 85.654z"/>
 </g>
 <g fill="#916154">
  <path d="m357.94 1124.8c5.7849 1.4458 11.495 1.446 17.131 1e-4 -0.42297 2.0397-1.7407 2.9189-3.9532 2.6356-1.3178 0-2.6355 0-3.9533-2e-4h-5.271c-1.3178-0.8789-2.6355-1.7566-3.9532-2.6355z"/>
 </g>
 <g fill="#7b2443">
  <path d="m697.92 1120.9c2.4602 6.5005 4.6557 13.089 6.5888 19.766-3.9282-0.4192-7.0039 0.8988-9.2243 3.9532h-3.9533c-2.3494-5.7795-3.6673-11.929-3.9533-18.448 0.8792-0.439 1.7567-0.8789 2.6356-1.3179 3.0098-0.626 5.6453-1.9436 7.9065-3.9533z"/>
 </g>
 <g fill="#3a323b">
  <path d="m683.42 1132.7c1.5484 4.6676 2.426 9.4997 2.6356 14.495-1.4271 0.0514-2.7449 0.4915-3.9532 1.3178-1.7-2.8421-2.7988-5.9164-3.2944-9.2242 0.03957 3.7701-1.058 6.8458-3.2944 9.2243-0.4308-6.6469 0.00816-13.236 1.3178-19.766 2.0702-1.0661 4.267-1.506 6.5886-1.3178v5.271z"/>
 </g>
 <g fill="#9b9190">
  <path d="m686.06 1124.8c0.8789 0 1.3176 0.439 1.3176 1.3179 0.28604 6.5189 1.6039 12.669 3.9533 18.448v1.3179c-1.9225-0.0885-3.6791 0.3505-5.2709 1.3176-0.2096-4.9955-1.0872-9.8276-2.6356-14.495 1.2626-2.3747 2.1415-5.0103 2.6356-7.9065z"/>
 </g>
 <g fill="#9ba5a9">
  <path d="m647.85 1163c-0.87905 0.4387-1.7566 0.8789-2.6356 1.3176 0.18859-7.4703 0.18859-14.718 0-21.743 6.0631-24.162 11.114-48.541 15.154-73.135 0.87903 3.5146 0.87903 7.0276 0 10.542-5.0957 27.594-9.2692 55.266-12.519 83.018z"/>
 </g>
 <g fill="#5b6474">
  <path d="m361.89 1127.5h1.3178v27.673c-0.87897-7.0276-1.7565-14.056-2.6355-21.084 0.16999-2.2612 0.60877-4.4581 1.3178-6.5889z"/>
 </g>
 <g fill="#272337">
  <path d="m380.34 1116.9c-0.21607 3.5406 0.00398 7.0551 0.65888 10.542 5.8377 14.568 10.45 29.503 13.836 44.803-0.93434 1.1913-2.252 1.63-3.9533 1.318-4.2022-14.585-8.8144-29.08-13.836-43.486-0.31225 14.098-0.97113 28.155-1.9766 42.168-1.041-1.4613-1.6999-3.218-1.9766-5.2709-0.224-12.531-0.88287-24.829-1.9766-36.897v-2.6356c2.2125 0.2833 3.5303-0.5959 3.9532-2.6356 1.4495-1.456 2.3285-3.2126 2.6355-5.271 0.87898-0.8788 1.7565-1.7565 2.6355-2.6354z"/>
 </g>
 <g fill="#85243d">
  <path d="m722.96 1101.1c3.8835 1.5076 7.3965 3.7045 10.542 6.5888-0.2754 0.7722-0.7156 1.4311-1.3178 1.9767 2.0029 3.4209 3.1007 7.1539 3.2944 11.201 1.526 0.6561 2.6236 1.7537 3.2943 3.2944-1.5313 8.1095 0.22544 15.357 5.271 21.743 1.941 3.3167 2.8199 7.0499 2.6355 11.201-1.779 4.9204-0.9014 8.8738 2.6355 11.86 0.618 2.5854-0.2597 5.0008-2.6355 7.2475 2.4446 2.6939 3.3233 5.5492 2.6355 8.5655 1.0305 3.6104 1.6894 7.345 1.9767 11.201 0.5457 0.6023 1.2045 1.0425 1.9767 1.318 1.3097 6.5305 1.7487 13.119 1.3176 19.766-2.6355-8.7855-5.271-17.57-7.9065-26.355-7.4887-28.42-14.736-56.972-21.743-85.654-1.7868-1.1596-3.7636-1.5996-5.9298-1.3178 0.62329-1.8525 1.941-2.7314 3.9532-2.6355z"/>
 </g>
 <g fill="#4d4e4e">
  <path d="m664.98 1118.2v0.0017c0.43886-0.0017 0.8789-0.0017 1.3178-0.0017-0.21876 8.7959 0 17.581 0.65884 26.355 0.30564-1.63 0.9646-2.9476 1.9767-3.9532 0 4.3922 2.0268 18.879 2.0268 23.272-1.3177 0-5.5439 2.1813-5.6577-2.5812-0.28296-11.856-0.3224-31.232-0.3224-43.092v0.0017z"/>
 </g>
 <g fill="#d1a582">
  <path d="m704.51 1140.6c2.6355 0.8789 5.271 1.7566 7.9065 2.6355-5.5202 0.9502-10.351 3.1455-14.495 6.5888-2.2086-0.9-3.0875-2.6579-2.6355-5.2711 2.2204-3.0544 5.296-4.3724 9.2243-3.9532z"/>
 </g>
 <g fill="#9bb4bc">
  <path d="m371.12 1130.1c0.22668 15.839-0.21344 31.652-1.3178 47.439-1.5286-16.024-1.7487-32.276-0.65888-48.757 0.5047 0.7327 1.1636 1.1716 1.9766 1.3179z"/>
 </g>
 <g fill="#252629">
  <path d="m352.67 1126.1c-9.0464 18.095-17.392 36.544-25.037 55.346h-1.3177c5.1273-19.769 12.595-38.658 22.402-56.663 3.3946-2.1307 4.7124-1.6905 3.9533 1.3179z"/>
 </g>
 <g fill="#1e262c">
  <path d="m356.62 1149.9c-2.9807 12.015-6.4939 23.875-10.542 35.579-1.4469-1.4509-1.667-3.2075-0.65886-5.2711 3.1244-10.487 6.8575-20.59 11.201-30.308z"/>
 </g>
 <g fill="#968576">
  <path d="m621.49 1149.9c-1.7671 7.9408-3.5236 15.847-5.2709 23.719 0.0856 0.5772-0.1332 1.0174-0.65894 1.3178-6.4015-2.5222-13.21-3.4009-20.425-2.6356 5.8903-1.2991 12.04-1.7381 18.448-1.3177 1.634-6.478 2.733-13.067 3.2944-19.766 1.3322-1.103 2.87-1.5417 4.6121-1.3177z"/>
 </g>
 <g fill="#c99467">
  <path d="m686.06 1147.2c1.5918-0.9671 3.3484-1.4061 5.2709-1.3176 1.7567 10.103 1.7567 20.205 0 30.308 0.43625-9.7025-0.0038-19.367-1.3177-28.99-5.6321 2.0899-11.343 3.8479-17.131 5.2711 0.3716-1.6839 1.2505-3.0015 2.6354-3.9532 2.2364-2.3785 3.334-5.4542 3.2944-9.2243 0.4956 3.3078 1.5945 6.3821 3.2944 9.2242 1.2084-0.8263 2.5262-1.2664 3.9532-1.3178z"/>
 </g>
 <g fill="#e3ab5b">
  <path d="m691.33 1176.2c-1.9962 34.231-3.314 68.493-3.9532 102.78-0.45725 10.395-1.775 20.496-3.9532 30.308-10.526-4.3366-21.507-5.2158-32.944-2.6355 5.3369-48.629 11.487-97.167 18.448-145.61-0.13843-2.0979-0.57849-4.0746-1.3179-5.9298 1.3072 0.2265 2.1849-0.2135 2.6356-1.3178 0.8789-0.439 1.7565-0.8789 2.6355-1.3179 5.7875-1.4232 11.499-3.1812 17.131-5.2711 1.3139 9.6236 1.7539 19.288 1.3177 28.99z"/>
 </g>
 <g fill="#171825">
  <path d="m363.21 1127.5h3.9532v52.71c-1.7012 0.3124-3.0189-0.1264-3.9532-1.3176 1.2374-7.6894 1.2374-15.596 0-23.72v-27.673z"/>
 </g>
 <g fill="#614947">
  <path d="m626.76 1148.6c0.9342 1.1913 2.2519 1.63 3.9532 1.3179-1.4864 7.4332-2.8042 14.901-3.9532 22.402h-7.9065c2.2506-8.1647 4.8861-16.071 7.9065-23.72z"/>
 </g>
 <g fill="#445965">
  <path d="m367.16 1127.5c1.3178 2e-4 2.6355 2e-4 3.9533 2e-4v2.6356c-0.81305-0.1463-1.4719-0.5852-1.9766-1.3179-1.0898 16.481-0.86972 32.733 0.65888 48.757-0.43878 1.7565-0.87891 3.5144-1.3178 5.271-2.5498-0.8567-5.1853-1.2954-7.9065-1.3178 0-1.7566 0.87897-2.6355 2.6355-2.6355 0.93433 1.1912 2.2521 1.63 3.9532 1.3176v-52.71z"/>
 </g>
 <g fill="#b1a695">
  <path d="m626.76 1148.6c2.3562-0.3756 4.5527 0.0631 6.5886 1.3179 1.9437 2.0702 4.1405 3.8281 6.5889 5.271-1.1703 3.3654-1.609 6.88-1.3178 10.542 0.11317 1.3123-0.32693 2.41-1.3179 3.2943-3.6792 0.7142-7.1922 1.8133-10.542 3.2943 1.149-7.5006 2.4668-14.968 3.9532-22.402-1.7013 0.3121-3.019-0.1266-3.9532-1.3179z"/>
 </g>
 <g fill="#ebb86f">
  <path d="m719 1103.7c2.1662-0.2818 4.143 0.1582 5.9298 1.3178 7.0066 28.682 14.254 57.234 21.743 85.654-1.1543-0.1727-2.0333 0.2662-2.6355 1.3176 1.5036 1.219 1.5036 2.318 0 3.2947 4.7492 5.4222 5.188 11.352 1.3178 17.79-1.9306-1.4617-3.2482-0.8028-3.9533 1.9765 2.1586 0.319 4.1352 1.4167 5.93 3.2944 0.4387 2.6356 0.8789 5.271 1.3176 7.9065 1.3758-1.4798 2.2535-3.2364 2.6356-5.2709 2.2573 3.3138 2.4774 6.8283 0.65883 10.542-0.87893 1.7566-1.7565 3.5146-2.6355 5.2712-0.55213-11.533-2.5287-11.972-5.9298-1.3179-0.2451-3.1626-0.9039-6.2382-1.9767-9.2242-3.0519 3.8571-5.0284 3.4168-5.9298-1.3177-0.4388 3.0742-0.8789 6.1499-1.3177 9.2241-2.6632-4.6807-2.4431-9.2928 0.6588-13.836 0.0554-5.6649-0.1647-11.595-0.6588-17.79-0.5457 0.602-1.2046 1.0422-1.9767 1.3176-0.9619-2.4258-1.8408-4.8427-2.6355-7.2476 0.4387-0.4387 0.879-0.8789 1.3178-1.3176-1.4732-1.4154-2.7909-2.9519-3.9532-4.6123-0.91186 0.6918-1.5708 1.5707-1.9767 2.6355 0.21626-6.1344 0.21626-12.283-5e-5 -18.449-0.06579 2.9568-1.1636 5.1538-3.2943 6.5887-3.2179-12.544-6.2922-25.282-9.2243-38.215-2.6355-0.8789-5.271-1.7566-7.9065-2.6355-1.9331-6.6771-4.1286-13.266-6.5888-19.766 1.1135-1.543 1.9911-3.3009 2.6355-5.271 1.7012 0.3124 3.0189-0.1263 3.9533-1.3176 4.7926-3.4619 9.625-6.975 14.495-10.542z"/>
 </g>
 <g fill="#1d2732">
  <path d="m357.94 1124.8c1.3177 0.8789 2.6355 1.7566 3.9532 2.6355-0.70898 2.1308-1.1478 4.3277-1.3178 6.5889-0.66943 4.8716-1.547 9.7039-2.6355 14.495-1.0411-1.4614-1.6999-3.218-1.9766-5.271-3.7174 12.694-8.3295 24.994-13.836 36.897-4.8704 7.5743-7.946 15.92-9.2243 25.038h-3.9532c1.3376-7.5297 3.9731-14.557 7.9064-21.084 7.5587-18.285 13.268-37.174 17.131-56.663 0.95142-1.385 2.2692-2.2639 3.9533-2.6355z"/>
 </g>
 <g fill="#7c8c95">
  <path d="m357.94 1148.6c0 0.8789-0.43879 1.3179-1.3178 1.3179-4.3433 9.7184-8.0765 19.822-11.201 30.308-1.0081 2.0636-0.78804 3.8202 0.65886 5.2711-0.07903 0.7155-0.51793 1.1544-1.3178 1.3178-1.0831-2.1601-1.962-4.3554-2.6354-6.5889 5.5068-11.903 10.119-24.203 13.836-36.897 0.27673 2.053 0.93555 3.8096 1.9766 5.271z"/>
 </g>
 <g fill="#303b44">
  <path d="m473.9 1090.6c0.01185 2.3822-0.64697 4.5791-1.9766 6.5885-1.6433-3.1376-2.082-2.6974-1.3178 1.318 14.481 29.843 29.635 59.272 45.462 88.289-0.62855 1.2887-1.5062 2.3866-2.6355 3.2943 2.0412 1.5998 3.5777 3.5764 4.6122 5.9299 0.4387-0.4387 0.8789-0.8789 1.3178-1.3176 5.3698 13.254 9.5431 26.872 12.519 40.85-3.0848 0.6484-5.7203 2.1862-7.9065 4.6122 1.4811 0.328 2.7988 0.987 3.9532 1.9765-1.7962 1.8357-2.8938 4.0312-3.2944 6.5889-0.63645-1.2493-0.8551-2.5669-0.6588-3.9532h-5.271c0.1963 1.3863-0.02245 2.7039-0.6588 3.9532-0.94886-2.1244-0.7301-4.1009 0.6588-5.9299-0.69176-0.912-1.5708-1.5709-2.6355-1.9766-2.011 4.1561-2.8899 8.5482-2.6355 13.177-3.5659-8.4942-6.6402-17.28-9.2243-26.355 0.22676-1.3073-0.2135-2.1847-1.3177-2.6354-6.6428-15.484-14.331-30.418-23.061-44.804-0.30572 1.63-0.96466 2.9479-1.9766 3.9532 0.21338-2.6711-0.00671-5.3065-0.659-7.9065-16.704-24.627-32.737-49.664-48.098-75.112 2.0556 0.0251 4.0322 0.4639 5.9299 1.3178 11.045-3.3656 22.246-6.221 33.603-8.5654 1.9555-0.8724 3.7121-1.9713 5.271-3.2943z"/>
 </g>
 <g fill="#962d4b">
  <path d="m771.71 1177.5c4.9337 11.869 8.8871 24.168 11.86 36.897-2.3377-1.8199-4.3142-1.381-5.9298 1.3178-0.55859-4.8623-1.6577-5.0826-3.2945-0.6589 2.9638 3.2247 3.1837 6.519 0.65896 9.8832-0.32812-1.4812-0.98706-2.7989-1.9766-3.9532-1.2216 2.1253-2.3206 4.3208-3.2944 6.5886-0.40577-1.0647-1.0647-1.9436-1.9768-2.6354-0.0421 2.6211-1.1398 5.2564-3.2943 7.9065-1.7566-0.879-3.0742-2.1969-3.9534-3.9532 1.3206 9.0199 2.4195 18.244 3.2945 27.673-4.1035-12.791-7.1791-25.969-9.2243-39.532 0.43106-6.6471-0.0079-13.236-1.3176-19.766-0.7722-0.2755-1.431-0.7157-1.9767-1.318-0.28734-3.856-0.9462-7.5906-1.9767-11.201 0.68784-3.0163-0.19095-5.8716-2.6355-8.5655 2.3758-2.2467 3.2535-4.6621 2.6355-7.2475-3.5369-2.986-4.4145-6.9394-2.6355-11.86 0.1844-4.1509-0.6945-7.8841-2.6355-11.201 1.7144-1.8211 2.8121-4.0166 3.2944-6.5889 0.32826 1.4813 0.9871 2.799 1.9766 3.9533 0.9791-1.8552 2.0782-3.6119 3.2943-5.2709 0.6484 1.3823 0.4297 2.7-0.6588 3.9533 1.0871 1.1673 2.4049 1.6063 3.9532 1.3176-0.3939 2.7725 0.04494 5.4081 1.3179 7.9066 0.8789-0.879 1.7565-1.7567 2.6354-2.6356 1.6869 2.9307 1.248 5.5662-1.3178 7.9065 1.6433 2.0321 1.6433 4.0087 0 5.9299 3.4552 5.2276 7.8473 10.279 13.178 15.154z"/>
 </g>
 <g fill="#1d2d41">
  <path d="m371.12 1130.1c1.0938 12.068 1.7526 24.366 1.9766 36.897 0.27673 2.0529 0.9356 3.8096 1.9766 5.2709 0.11335 1.3126-0.32678 2.4103-1.3178 3.2946 3.044 0.6549 6.1184 0.8736 9.2242 0.6587 0.97388-0.1726 1.8528 0.0477 2.6356 0.6589-2.4708 2.8964-2.4708 5.3116 0 7.2476-1.5668 1.2243-3.3234 1.663-5.2711 1.3178-4.3235 0.1054-8.2767-0.7735-11.86-2.6355 0.43884-1.7566 0.87897-3.5145 1.3178-5.271 1.1043-15.787 1.5444-31.6 1.3178-47.439z"/>
 </g>
 <g fill="#f2d598">
  <path d="m667.61 1155.1c0.73937 1.8552 1.1794 3.8319 1.3179 5.9298-6.9616 48.444-13.111 96.983-18.448 145.61-17.621 3.521-35.191 7.0342-52.71 10.542v6.5888c-1.8856-1.687-2.7646-3.8835-2.6354-6.5888 11.329-43.046 20.772-86.532 28.331-130.46 6.3108-1.1386 12.459-2.8963 18.448-5.271 1.7842-5.0905 2.4431-10.361 1.9767-15.813 0.87894 0 1.3177-0.439 1.3177-1.3179 0.87904-0.4387 1.7566-0.8789 2.6356-1.3176 2.0121 0.096 3.3299-0.7829 3.9532-2.6357 2.4063-1.236 4.8217-2.5537 7.2476-3.9532 2.816-0.7604 5.6716-1.1991 8.5653-1.3176z"/>
 </g>
 <g fill="#3a9495">
  <path d="m360.58 1181.5c2.7212 0.0224 5.3567 0.4611 7.9065 1.3178 3.583 1.862 7.5362 2.7409 11.86 2.6355 2.6355 0.8791 5.2711 1.7565 7.9065 2.6354-7.4545 43.789-14.043 87.715-19.766 131.78-2.1968-3e-4 -4.3921-3e-4 -6.5888-3e-4 -4.0679-0.3254-7.8011-1.6433-11.201-3.9531-0.40582 1.0645-1.0646 1.9436-1.9766 2.6353 0.24646-1.7354-0.63251-3.492-2.6354-5.271-0.77227 0.2756-1.4311 0.7158-1.9766 1.3178-1.6512-4.6701-4.0679-5.1089-7.2477-1.3178-1.5958-1.0198-1.5958-2.1175 0-3.2942-1.6682-0.4075-3.206-1.0662-4.6121-1.9766-2.3113 0.4981-4.7268 1.8157-7.2477 3.9531 0.0752-1.4614 0.51398-2.7793 1.3178-3.9531v-1.3179c7.3345-22.905 13.923-46.186 19.766-69.84 2.9149-7.4323 5.5503-15.12 7.9065-23.061-0.30964-1.1502-0.74982-2.2493-1.3177-3.2943 2.6394-9.6817 5.275-19.345 7.9064-28.991z"/>
 </g>
 <g fill="#2d6569">
  <path d="m325 1181.5h2.6355c0 0.879 0.43878 1.3177 1.3178 1.3177-2.3521 7.3307-4.5488 14.799-6.5887 22.402h-2.6356c1.5181-4.8032 3.0546-9.6355 4.6122-14.495 0.6548-3.0442 0.8736-6.1184 0.65877-9.2243z"/>
 </g>
 <g fill="#4dc3c3">
  <path d="m325 1181.5c0.21483 3.1059-0.00397 6.1801-0.65877 9.2243-1.5576 4.8599-3.0941 9.6922-4.6122 14.495-0.589 3.9847-1.6867 4.4235-3.2943 1.3176-1.6406-0.0514-3.3972 0.3887-5.2711 1.3176-1.2452-0.5335-2.1241-1.4124-2.6355-2.6352-0.12654 3.8885-1.2242 7.4031-3.2944 10.542 0.62854 1.2885 1.5062 2.3864 2.6355 3.2944-2.8358 3.1941-4.5923 6.9274-5.271 11.201 0.93957 3.421 0.93957 6.9353 0 10.542-1.7421-0.2241-3.2798 0.2146-4.6121 1.3176-0.37689 3.2931-0.1568 6.1471 0.65888 8.5655-3.6884 0.5786-5.0062 2.3348-3.9532 5.271-2.9148 2.2415-3.7938 4.8769-2.6355 7.9066-0.9804 2.8398-2.2982 5.4753-3.9532 7.9065 0.19104 1.0171 0.62987 1.8962 1.3178 2.6355-2.082 2.9792-4.2774 5.8337-6.5888 8.5654-0.14227-4.9377 0.51654-9.77 1.9766-14.495 8.2135-25.074 16.12-50.112 23.719-75.112 1.5128-5.2092 2.6117-10.48 3.2943-15.813 4.9891-0.2372 9.3811 1.0805 13.177 3.9533z"/>
 </g>
 <g fill="#56c3c1">
  <path d="m342.13 1180.2c0.6734 2.2335 1.5523 4.4288 2.6354 6.5889 0.79987-0.1634 1.2388-0.6023 1.3178-1.3178 4.06-3.5488 8.8908-4.8665 14.495-3.9532-2.6314 9.646-5.267 19.309-7.9064 28.991 0.56792 1.045 1.0081 2.1441 1.3177 3.2943-2.3562 7.9408-4.9916 15.628-7.9065 23.061 2.4629-10.691 4.6596-21.452 6.5888-32.285-0.83937-2.2573-2.1571-2.476-3.9533-0.6589-0.91186-0.6918-1.5707-1.5707-1.9766-2.6353-0.84192 3.5946-2.3798 4.2536-4.6121 1.9766 0.929-2.0516 0.05133-3.5883-2.6355-4.6122-1.385 3.089-3.5817 5.2854-6.5888 6.5889 1.2782-9.1178 4.3538-17.463 9.2243-25.038z"/>
 </g>
 <g fill="#4d9ead">
  <path d="m328.95 1182.8c2.4761 1.1082 5.1116 1.5484 7.9065 1.3176-3.9334 6.527-6.5689 13.555-7.9064 21.084h3.9532c-3.2693 0.9986-6.7838 0.9986-10.542 0 2.0399-7.6034 4.2365-15.071 6.5887-22.402z"/>
 </g>
 <g fill="#661c34">
  <path d="m712.42 1143.3c2.9321 12.932 6.0064 25.671 9.2243 38.215 2.351 14.984 4.9864 29.918 7.9066 44.804-1.6973-5.08-4.7715-9.4732-9.2242-13.177-2.9267 3.691-4.0258 7.6443-3.2945 11.86-1.2055-1.091-2.0832-2.4089-2.6355-3.9532-0.4387 1.7563-0.8789 3.5143-1.3177 5.2709-1.9596-0.9925-2.1795-2.0901-0.6589-3.2946-1.207-0.4928-2.3062-1.1519-3.2944-1.9766-0.65882 8.3348-0.87757 16.68-0.65882 25.037-3.0189-25.679-5.4358-51.595-7.2478-77.747-0.3584-6.03-1.4562-11.74-3.2943-17.131v-1.3178c4.1443-3.4433 8.9751-5.6386 14.495-6.5888z"/>
 </g>
 <g fill="#44cac4">
  <path d="m346.08 1236.8c-5.8429 23.655-12.432 46.936-19.766 69.84-0.21612-3.5407 0.00398-7.0554 0.65882-10.542 3.5448-12.676 6.8392-25.413 9.8831-38.215-1.9449-1.8183-3.2627-4.0152-3.9532-6.5887 4.9258-4.0929 6.4636-8.9249 4.6122-14.495-4.3908-2.5606-4.172-4.0984 0.65887-4.6122-3.1521-0.307-6.4465-1.4047-9.8831-3.2943-0.63647 1.249-0.85523 2.5666-0.65893 3.9532-3.2456-0.3703-6.1012-1.688-8.5654-3.9532 0.02502 2.1175 0.24377 4.3141 0.65887 6.5886h-5.2709c0.34515 1.9477-0.09363 3.7042-1.3178 5.2711-3.861-2.2112-5.1787-1.5524-3.9533 1.9766-0.3413 1.6616-1.2202 2.9792-2.6355 3.9532 1.9819 1.7619 3.2997 3.9584 3.9533 6.5886-2.2151 2.5632-3.0941 5.1985-2.6355 7.9065-1.5101 0.85-2.8279 1.9479-3.9533 3.2947-0.87895-0.8789-1.7565-1.7567-2.6355-2.6357-2.1163 4.7585-3.4341 9.3708-3.9532 13.837-3.0322-0.2465-3.4722-1.7844-1.3178-4.6123-1.0871-1.1674-2.4049-1.6064-3.9532-1.3176-0.82232 4.6292 0.49549 8.3638 3.9532 11.201-1.692 0.9014-3.2298 0.6814-4.6121-0.6587-1.9595 0.9922-2.1796 2.0898-0.65888 3.2944-1.9647 2.7635-3.2825 5.8374-3.9532 9.2242 1.4944 1.3386 1.0555 2.2177-1.3178 2.6355 4.3038 1.0715 4.9626 3.4868 1.9766 7.2475-1.2189-0.7207-2.3166-1.5984-3.2944-2.6352 1.3257-1.1809 1.3257-2.0584 0-2.6358-1.7565 5.271-1.7565 10.542 0 15.813 2.8148 1.281 4.3525 3.4776 4.6121 6.5889 0.88422 0.9909 1.9819 1.4309 3.2944 1.3176-7.2582 4.2893-14.726 8.2427-22.402 11.86-0.71552-0.0791-1.1543-0.5181-1.3177-1.3177 4.2115-12.926 7.5059-26.104 9.8831-39.532 1.3454-3.2549 2.8833-6.3306 4.6121-9.2244 2.3113-2.7317 4.5067-5.5862 6.5888-8.5654-0.68788-0.7393-1.1267-1.6184-1.3178-2.6355 1.6551-2.4312 2.9728-5.0667 3.9532-7.9065-1.1583-3.0297-0.27929-5.6651 2.6355-7.9066-1.0529-2.9362 0.26489-4.6924 3.9532-5.271-0.81568-2.4184-1.0358-5.2724-0.65888-8.5655 1.3323-1.103 2.8701-1.5417 4.6121-1.3176 0.93957-3.6068 0.93957-7.1211 0-10.542 0.67871-4.2734 2.4352-8.0067 5.271-11.201-1.1293-0.908-2.007-2.0059-2.6355-3.2944 2.0702-3.1388 3.1678-6.6534 3.2944-10.542 0.51136 1.2228 1.3903 2.1017 2.6355 2.6352 1.8738-0.9289 3.6305-1.369 5.2711-1.3176 1.6076 3.1059 2.7053 2.6671 3.2943-1.3176h2.6356c3.7582 0.9986 7.2726 0.9986 10.542 0 3.0071-1.3035 5.2038-3.4999 6.5888-6.5889 2.6868 1.0239 3.5645 2.5606 2.6355 4.6122 2.2323 2.277 3.7701 1.618 4.6121-1.9766 0.40588 1.0646 1.0648 1.9435 1.9766 2.6353 1.7962-1.8171 3.114-1.5984 3.9533 0.6589-1.9292 10.833-4.1259 21.594-6.5888 32.285z"/>
 </g>
 <g fill="#243f4a">
  <path d="m431.73 1312h-6.5888c1.8382-1.5127 1.6182-2.8303-0.6588-3.9531-4.9022 3.0993-9.9531 3.758-15.154 1.9765 2.7119-2.3825 3.152-5.238 1.3178-8.5654 4.197 0.2927 5.5147 2.2693 3.9532 5.9299 2.8358 2.7434 3.7147 2.5247 2.6355-0.6589 5.362-3.0059 4.9232-4.7637-1.3178-5.271-0.614-2.2417-0.614-4.2183 0-5.9299-1.0646-0.4058-1.9436-1.0647-2.6354-1.9766 1.7565-1.7566 1.7565-3.5147 0-5.271 3.1916-2.3538 3.1916-4.5491 0-6.5889 2.14-1.8043 2.7989-4.0008 1.9766-6.5887-1.3217 3.2087-1.9806 2.77-1.9766-1.3179-0.01844-2.758 0.85919-5.1733 2.6354-7.2475-3.1428-0.0726-4.9006-1.6104-5.2709-4.6122 1.5431-2.7157 3.301-4.2525 5.2709-4.6122-1.4824-2.5867-3.2404-5.0021-5.2709-7.2476 0.79199-2.932 1.2307-5.7861 1.3177-8.5654-1.2505-0.8131-2.3482-0.5944-3.2943 0.6589-1.8726-3.3061-4.0692-6.3819-6.5888-9.2241 0.67206 2.4774 0.45196 4.8927-0.65881 7.2476 1.0647 0.4059 1.9437 1.0646 2.6354 1.9765-1.3585 1.5815-2.4576 3.3394-3.2943 5.271-0.54553-0.602-1.2044-1.0422-1.9766-1.3177-0.87897-19.54-1.7565-38.866-2.6356-57.981-2.6354 0-5.271 1e-4 -7.9065 1e-4 -2.6354-0.8789-5.271-1.7563-7.9065-2.6354 1.9476 0.3452 3.7042-0.0935 5.2711-1.3178-2.4708-1.936-2.4708-4.3512 0-7.2476-0.78277-0.6112-1.6617-0.8315-2.6356-0.6589 2.3746-1.2623 5.0102-2.1413 7.9065-2.6354 1.7012 0.312 3.0189-0.1267 3.9533-1.318 6.5466-1.5272 13.135-2.8449 19.766-3.9532 5.6018 47.888 11.312 95.766 17.131 143.64z"/>
 </g>
 <g fill="#a03050">
  <path d="m783.57 1214.4c7.6879 18.236 13.838 37.124 18.448 56.663 0.22934 3.1113 0.66821 6.1856 1.3178 9.2244-1.4271 0.0515-2.7448 0.4914-3.9532 1.3176-1.2559-3.1731-3.0137-6.0288-5.2711-8.5654-3.3747 0.5285-6.8892 0.3098-10.542-0.6587 0.31763 4.6108-0.78003 5.0496-3.2943 1.3176-5.9918 7.6536-10.165 6.7747-12.519-2.6355 1.298-2.1057 1.5169-4.3022 0.659-6.5886-0.4389 0.8789-0.8791 1.7563-1.3178 2.6353-0.26354-2.3982-1.3627-4.1546-3.2944-5.2709v-5.2709c-0.875-9.4286-1.9739-18.653-3.2945-27.673 0.87916 1.7563 2.1968 3.0742 3.9534 3.9532 2.1546-2.6501 3.2522-5.2854 3.2943-7.9065 0.91207 0.6918 1.571 1.5707 1.9768 2.6354 0.97387-2.2678 2.0729-4.4633 3.2944-6.5886 0.9895 1.1543 1.6484 2.472 1.9766 3.9532 2.5248-3.3642 2.3048-6.6585-0.65896-9.8832 1.6368-4.4237 2.7359-4.2034 3.2945 0.6589 1.6156-2.6988 3.5921-3.1377 5.9298-1.3178z"/>
 </g>
 <g fill="#6c1c3b">
  <path d="m729.55 1226.3v1.3177c-0.16345 8.025 0.71435 15.932 2.6355 23.72-0.5731 2.9516-1.452 5.806-2.6355 8.5654 1.3652 3.1732 1.3652 6.2472 0 9.2243 1.3178 0.4389 2.6355 0.8789 3.9532 1.3178-1.2533 4.0284-1.692 8.2002-1.3178 12.519-4.5304-2.9771-8.9225-6.2712-13.178-9.8833-2.0096-1.3296-4.2062-1.9885-6.5888-1.9768v3.9533c-1.1042-0.4506-1.5444-1.3281-1.3178-2.6354-0.87905-8.7855-1.7566-17.57-2.6355-26.355-0.21875-8.3571 0-16.702 0.65882-25.037 0.98828 0.8247 2.0874 1.4838 3.2944 1.9766-1.5206 1.2045-1.3007 2.3021 0.6589 3.2946 0.4388-1.7566 0.879-3.5146 1.3177-5.2709 0.5523 1.5443 1.43 2.8622 2.6355 3.9532-0.7313-4.2154 0.3678-8.1687 3.2945-11.86 4.4527 3.7042 7.527 8.0974 9.2242 13.177z"/>
 </g>
 <g fill="#11122c">
  <path d="m388.25 1188.1c2.6355 0 5.2711-1e-4 7.9065-1e-4 3e-5 28.552 3e-5 57.102 3e-5 85.654-0.69043-13.595-1.7882-27.212-3.2944-40.85-0.25428 12.362-0.91315 24.66-1.9766 36.897 1.8594 1.999 1.6394 3.7568-0.65887 5.271-2.3192-4.5225-2.5392-8.6946-0.65882-12.518-2.1586-2.811-3.2562-6.1053-3.2944-9.8832-1.0976 3.9532-2.1966 7.9065-3.2944 11.86-2.0675-1.5996-3.1652-3.7963-3.2943-6.5887-0.97913 2.5578-0.7591 4.9731 0.65881 7.2474-1.9819 1.9648-3.0795 4.3804-3.2944 7.2478-1.5629 11.912-3.3194 23.772-5.271 35.58-0.8789 4.3918-0.8789 8.7853 0 13.177 0.87898-0.8789 1.7565-1.7566 2.6355-2.6355 1.6472 1.4138 3.4051 1.4138 5.2711 0 2.0109 2.438 4.4263 4.4146 7.2476 5.9299-4.4645 5.6746-3.5856 7.6512 2.6356 5.93-7.0171 7.0117-14.483 13.601-22.402 19.766-1.2545-2.0359-1.6933-4.2324-1.3178-6.5886 0.36237-8.0237 1.2413-15.93 2.6356-23.719 5.723-44.06 12.312-87.986 19.766-131.78z"/>
 </g>
 <g fill="#905237">
  <path d="m697.92 1151.2c1.8382 5.3909 2.9359 11.101 3.2943 17.131 1.812 26.152 4.2289 52.068 7.2478 77.747 0.87891 8.7856 1.7564 17.57 2.6355 26.355-0.95141-0.5511-1.6104-1.4285-1.9767-2.6356-0.43872-4.8322-0.87891-9.6632-1.3176-14.495-0.87904-0.8791-1.7566-1.7565-2.6356-2.6354 0.70107 5.6095 0.70107 11.321 0 17.131-0.4387-1.3176-0.8789-2.6357-1.3176-3.9533-1.7223 1.676-3.6989 2.9939-5.9299 3.9533-1.7565 2.6356-1.7565 5.271 0 7.9066-0.62856 1.2888-1.5062 2.3863-2.6355 3.2943 0.43874 0.4389 0.87904 0.8789 1.3177 1.3178-1.3244 1.9859-3.0809 3.5222-5.2711 4.6121 1.4365 1.4617 1.4365 2.7793 0 3.9534-1.8118-37.814-1.153-75.589 1.9766-113.33 0.65894-1.5379 1.7566-2.6355 3.2944-3.2945-0.43873-0.4387-0.87904-0.879-1.3178-1.3177 2.0464-7.0527 2.9241-14.3 2.6355-21.743z"/>
 </g>
 <g fill="#ebb26f">
  <path d="m746.68 1190.7c2.6355 8.7855 5.271 17.57 7.9065 26.355 2.0452 13.564 5.1208 26.741 9.2243 39.532v5.2709c1.5233 4.774 2.841 9.6051 3.9532 14.496-0.07896 0.7153-0.5179 1.1543-1.3177 1.3176-8.5456-3.0152-17.331-4.773-26.355-5.271v3.9534c-3.7225-16.207-7.2357-32.459-10.542-48.757v-1.3177c-2.9202-14.885-5.5555-29.819-7.9066-44.804 2.1308-1.4349 3.2285-3.6319 3.2943-6.5887 0.21631 6.1656 0.21631 12.314 5e-5 18.449 0.4059-1.0648 1.0648-1.9437 1.9767-2.6355 1.1624 1.6604 2.48 3.1969 3.9532 4.6123-0.43875 0.4387-0.87905 0.8789-1.3178 1.3176 0.7947 2.4049 1.6736 4.8218 2.6355 7.2476 0.7721-0.2754 1.431-0.7156 1.9767-1.3176 0.4941 6.1948 0.7142 12.125 0.6588 17.79-3.1019 4.5435-3.322 9.1556-0.6588 13.836 0.4388-3.0742 0.8789-6.1499 1.3177-9.2241 0.9014 4.7345 2.878 5.1748 5.9298 1.3177 1.0728 2.986 1.7316 6.0616 1.9767 9.2242 3.4012-10.654 5.3777-10.215 5.9298 1.3179 0.87903-1.7566 1.7566-3.5146 2.6355-5.2712 1.8186-3.7135 1.5985-7.228-0.65883-10.542-0.38206 2.0345-1.2598 3.7911-2.6356 5.2709-0.4387-2.6355-0.8789-5.2709-1.3176-7.9065-1.7948-1.8777-3.7714-2.9754-5.93-3.2944 0.70506-2.7793 2.0227-3.4382 3.9533-1.9765 3.8702-6.4375 3.4314-12.368-1.3178-17.79 1.5036-0.9767 1.5036-2.0757 0-3.2947 0.60216-1.0514 1.4812-1.4903 2.6355-1.3176z"/>
 </g>
 <g fill="#3dcec4">
  <path d="m326.31 1306.7v1.3179c-5.3844 1.2254-10.655 2.7634-15.813 4.6121-6.0194 3.2312-12.169 6.0857-18.448 8.5654-1.3124 0.1133-2.4102-0.3267-3.2944-1.3176-0.25958-3.1113-1.7974-5.3079-4.6121-6.5889-1.7565-5.2707-1.7565-10.542 0-15.813 1.3257 0.5774 1.3257 1.4549 0 2.6358 0.97778 1.0368 2.0755 1.9145 3.2944 2.6352 2.986-3.7607 2.3272-6.176-1.9766-7.2475 2.3733-0.4178 2.8121-1.2969 1.3178-2.6355 0.67077-3.3868 1.9885-6.4607 3.9532-9.2242-1.5207-1.2046-1.3006-2.3022 0.65888-3.2944 1.3823 1.3401 2.9201 1.5601 4.6121 0.6587-3.4578-2.8369-4.7756-6.5715-3.9532-11.201 1.5483-0.2888 2.8662 0.1502 3.9532 1.3176-2.1545 2.8279-1.7144 4.3658 1.3178 4.6123 0.51916-4.4658 1.837-9.0781 3.9532-13.837 0.87896 0.879 1.7565 1.7568 2.6355 2.6357 1.1254-1.3468 2.4431-2.4447 3.9533-3.2947-0.45856-2.708 0.42041-5.3433 2.6355-7.9065-0.65356-2.6302-1.9714-4.8267-3.9533-6.5886 1.4153-0.974 2.2942-2.2916 2.6355-3.9532-1.2254-3.529 0.09223-4.1878 3.9533-1.9766 1.2242-1.5669 1.663-3.3234 1.3178-5.2711h5.2709c-0.4151-2.2745-0.63385-4.4711-0.65887-6.5886 2.4642 2.2652 5.3198 3.5829 8.5654 3.9532-0.1963-1.3866 0.02246-2.7042 0.65893-3.9532 3.4366 1.8896 6.731 2.9873 9.8831 3.2943-4.8309 0.5138-5.0497 2.0516-0.65887 4.6122 1.8514 5.5702 0.31359 10.402-4.6122 14.495 0.69054 2.5735 2.0083 4.7704 3.9532 6.5887-3.0439 12.802-6.3383 25.539-9.8831 38.215-0.65484 3.4866-0.87494 7.0013-0.65882 10.542z"/>
 </g>
 <g fill="#1e3942">
  <path d="m396.15 1188.1c0.87906 19.116 1.7566 38.442 2.6356 57.981 0.77221 0.2755 1.4311 0.7157 1.9766 1.3177 0.83673-1.9316 1.9358-3.6895 3.2943-5.271-0.69176-0.9119-1.5707-1.5706-2.6354-1.9765 1.1108-2.3549 1.3309-4.7702 0.65881-7.2476 2.5196 2.8422 4.7163 5.918 6.5888 9.2241 0.9461-1.2533 2.0438-1.472 3.2943-0.6589-0.08698 2.7793-0.5257 5.6334-1.3177 8.5654 2.0306 2.2455 3.7885 4.6609 5.2709 7.2476-1.9699 0.3597-3.7278 1.8965-5.2709 4.6122 0.3703 3.0018 2.1282 4.5396 5.2709 4.6122-1.7762 2.0742-2.6539 4.4895-2.6354 7.2475-0.00397 4.0879 0.6549 4.5266 1.9766 1.3179 0.82226 2.5879 0.16338 4.7844-1.9766 6.5887 3.1916 2.0398 3.1916 4.2351 0 6.5889 1.7565 1.7563 1.7565 3.5144 0 5.271 0.69183 0.9119 1.5708 1.5708 2.6354 1.9766-0.614 1.7116-0.614 3.6882 0 5.9299 6.241 0.5073 6.6798 2.2651 1.3178 5.271 1.0792 3.1836 0.20033 3.4023-2.6355 0.6589 1.5615-3.6606 0.24378-5.6372-3.9532-5.9299 1.8343 3.3274 1.3942 6.1829-1.3178 8.5654 5.2011 1.7815 10.252 1.1228 15.154-1.9765 2.277 1.1228 2.497 2.4404 0.6588 3.9531-9.9385 0.7986-18.284 4.7519-25.037 11.86-1.2531 1.8699-1.692 4.0652-1.3177 6.5887-1.2308-1.4075-1.671-3.1638-1.3178-5.271 0-17.145-0.44018-34.276-1.3178-51.392 0-28.552 0-57.102-3e-5 -85.654z"/>
 </g>
 <g fill="#14112f">
  <path d="m396.15 1273.7c0.87763 17.117 1.3178 34.247 1.3178 51.392-3.1271 0.9262-5.7625 2.6831-7.9065 5.271-6.2211 1.7212-7.1001-0.2554-2.6356-5.93-2.8212-1.5153-5.2367-3.4919-7.2476-5.9299-1.866 1.4138-3.6238 1.4138-5.2711 0-0.87896 0.8789-1.7565 1.7566-2.6355 2.6355-0.8789-4.3919-0.8789-8.7854 0-13.177 1.9516-11.807 3.7081-23.667 5.271-35.58 0.21485-2.8674 1.3125-5.283 3.2944-7.2478-1.4179-2.2743-1.6379-4.6896-0.65881-7.2474 0.12909 2.7924 1.2268 4.9891 3.2943 6.5887 1.0977-3.9531 2.1968-7.9064 3.2944-11.86 0.03821 3.7779 1.1358 7.0722 3.2944 9.8832-1.8804 3.8238-1.6604 7.9959 0.65882 12.518 2.2982-1.5142 2.5182-3.272 0.65887-5.271 1.0635-12.237 1.7224-24.535 1.9766-36.897 1.5062 13.639 2.6039 27.255 3.2944 40.85z"/>
 </g>
 <g fill="#ad7749">
  <path d="m638.62 1165.7h5.271c0.46646 5.4515-0.1925 10.722-1.9767 15.813-5.9891 2.3747-12.138 4.1324-18.448 5.271-7.5598 43.926-17.003 87.412-28.331 130.46-0.87905-2.1966-1.7566-4.3921-2.6355-6.5889-5.5952-16.463-10.426-33.155-14.495-50.075 2.2271-4.8849 3.7636-10.156 4.6122-15.813 3.6356-24.454 7.8076-48.612 12.519-72.476 7.2146-0.7653 14.024 0.1134 20.425 2.6356 0.52574-0.3004 0.74454-0.7406 0.65894-1.3178 0.8789-0.4389 1.7565-0.8789 2.6355-1.3178h7.9065c3.3497-1.481 6.8627-2.5801 10.542-3.2943 0.99094-0.8843 1.431-1.982 1.3179-3.2943z"/>
 </g>
 <g fill="#995a38">
  <path d="m691.33 1145.9v-1.3179h3.9533c-0.45204 2.6132 0.42686 4.3711 2.6355 5.2711v1.3178c0.28856 7.4425-0.58914 14.69-2.6355 21.743 0.43872 0.4387 0.87903 0.879 1.3178 1.3177-1.5378 0.659-2.6355 1.7566-3.2944 3.2945-3.1295 37.738-3.7884 75.512-1.9766 113.33 1.4365-1.1741 1.4365-2.4917 0-3.9534 2.1902-1.0899 3.9466-2.6262 5.2711-4.6121-0.4387-0.4389-0.879-0.8789-1.3177-1.3178 1.1293-0.908 2.0069-2.0055 2.6355-3.2943-1.7565-2.6356-1.7565-5.271 0-7.9066 2.2311-0.9594 4.2076-2.2773 5.9299-3.9533 0.4387 1.3176 0.8789 2.6357 1.3176 3.9533 0.70107-5.81 0.70107-11.521 0-17.131 0.87905 0.8789 1.7566 1.7563 2.6356 2.6354 0.43872 4.8321 0.87891 9.6631 1.3176 14.495 0.36633 1.2071 1.0253 2.0845 1.9767 2.6356-0.22668 1.3073 0.2135 2.1848 1.3178 2.6354 0.3624 9.7172 1.2414 19.38 2.6356 28.991 0.07644 6.4489 1.3941 12.599 3.9532 18.448 1.468 7.9287 3.2246 15.835 5.271 23.719 0.17273 0.9739-0.0475 1.8528-0.6588 2.6355-11.031-13.009-23.111-24.869-36.238-35.579v-34.262c0.63915-34.292 1.9569-68.553 3.9532-102.78 1.7567-10.103 1.7567-20.205 0-30.308z"/>
 </g>
 <g fill="#ac3c50">
  <path d="m763.81 1261.9c1.9317 1.1163 3.0309 2.8727 3.2944 5.2709 0.4387-0.879 0.8789-1.7564 1.3178-2.6353 0.8579 2.2864 0.63905 4.4829-0.659 6.5886 2.3536 9.4102 6.5269 10.289 12.519 2.6355 2.5143 3.732 3.6119 3.2932 3.2943-1.3176 3.6528 0.9685 7.1673 1.1872 10.542 0.6587 2.2574 2.5366 4.0152 5.3923 5.2711 8.5654 1.2084-0.8262 2.5261-1.2661 3.9532-1.3176 2.0979 4.5671 2.9755 9.3994 2.6354 14.495-3.1111-0.2292-6.1853-0.668-9.2241-1.3176-8.2083-3.8862-16.554-7.3992-25.037-10.542-1.0053-2.4617-2.3231-4.6585-3.9533-6.5886-1.1122-4.8904-2.4299-9.7215-3.9532-14.496z"/>
 </g>
 <g fill="#4e1333">
  <path d="m732.18 1283c1.0581 1.216 1.2782 2.5337 0.6588 3.9531-8.3266 3.5449-14.256 9.2544-17.79 17.131-1.3942-9.6104-2.2732-19.274-2.6356-28.991v-3.9533c2.3826-0.0117 4.5792 0.6472 6.5888 1.9768 4.255 3.6121 8.6471 6.9062 13.178 9.8833z"/>
 </g>
 <g fill="#323d47">
  <path d="m592.5 1310.6c0.8789 2.1968 1.7564 4.3923 2.6355 6.5889-0.1293 2.7053 0.74973 4.9018 2.6354 6.5888 2.816 9.0686 5.0128 18.293 6.5888 27.673 1.7196 3.364 3.0375 6.8786 3.9533 10.542-0.22667 1.3072 0.21338 2.1848 1.3176 2.6353 2.3799 13.69 5.8932 27.088 10.542 40.191-1.563 1.8608-3.3194 3.3984-5.271 4.6121-9.3008 3.5359-18.525 7.0503-27.673 10.542-1.5484 0.2888-2.8662-0.1502-3.9533-1.3176-19.909-39.811-38.357-80.222-55.346-121.23-0.17275-1.1543 0.26612-2.0332 1.3178-2.6355 1.9753 3.0337 3.7318 2.595 5.271-1.3176 0.8789 2.6355 1.7565 5.271 2.6355 7.9065 1.7394-2.3325 3.7161-2.7715 5.9299-1.3176 2.086-2.898 2.3061-5.9722 0.65884-9.2244 2.1399-0.1846 3.6765 0.6943 4.6121 2.6355 4.4541 14.62 9.2863 29.116 14.495 43.486-5.9774-21.009-11.688-42.093-17.131-63.252 1.7565 0.8789 3.5144 1.7566 5.271 2.6358 1.829-1.389 3.8057-1.6077 5.93-0.659 1.6458 2.4034 3.1824 2.1834 4.612-0.6589 3.2944 1.5378 6.5888 3.0742 9.8831 4.612-1.8949 0.2886-3.6515 0.9477-5.271 1.9767 1.4087 0.1846 2.9464 0.1846 4.6122 0 1.9186 10.727 3.6753 21.268 5.271 31.626 0.43885-0.8789 0.87891-1.7566 1.3178-2.6355 0.9105 3.1509 2.2283 3.1509 3.9532 0 0.78675-4.5566 2.1045-8.9487 3.9532-13.178 1.6313 3.6358 3.1678 7.3701 4.6121 11.201 0.44274 1.3575 1.3216 2.0164 2.6356 1.9766z"/>
 </g>
 <g fill="#74243f">
  <path d="m729.55 1227.6c3.3063 16.298 6.8195 32.55 10.542 48.757 2.2204 16.776 6.6136 33.028 13.178 48.757-11.478-0.2015-22.899-1.0806-34.262-2.6355-2.5591-5.8497-3.8768-12-3.9532-18.448 3.5331-7.8765 9.4629-13.586 17.79-17.131 0.6194-1.4194 0.3993-2.7371-0.6588-3.9531-0.3743-4.3184 0.06445-8.4902 1.3178-12.519-1.3178-0.4389-2.6355-0.8789-3.9532-1.3178 1.3652-2.9771 1.3652-6.0511 0-9.2243 1.1835-2.7594 2.0624-5.6138 2.6355-8.5654-1.9212-7.788-2.799-15.694-2.6355-23.72z"/>
 </g>
 <g fill="#9c4a59">
  <path d="m802.02 1271.1c3.4223 9.1717 6.4967 18.615 9.2243 28.332-0.09226 1.0078-0.531 1.6668-1.3178 1.9766-4.392-2.6355-8.7854-5.271-13.177-7.9065 3.0388 0.6496 6.113 1.0884 9.2241 1.3176 0.3401-5.0957-0.5375-9.928-2.6354-14.495-0.64963-3.0388-1.0885-6.1131-1.3178-9.2244z"/>
 </g>
 <g fill="#d9915b">
  <path d="m767.76 1276.4c1.6302 1.9301 2.948 4.1269 3.9533 6.5886v2.6355c-3.2389 13.936-8.9488 26.675-17.131 38.215 0 0.8789-0.4387 1.3177-1.3176 1.3177-6.564-15.729-10.957-31.98-13.178-48.757v-3.9534c9.024 0.498 17.809 2.2558 26.355 5.271 0.7998-0.1633 1.2387-0.6023 1.3177-1.3176z"/>
 </g>
 <g fill="#752a42">
  <path d="m771.71 1283c8.4838 3.1428 16.829 6.6558 25.037 10.542 4.392 2.6355 8.7854 5.271 13.177 7.9065-7.5941 2.2585-15.062 4.894-22.402 7.9065h-3.9532c-2.6775-7.3611-5.7518-14.609-9.2243-21.743-0.4426-1.3574-1.3216-2.0163-2.6355-1.9765v-2.6355z"/>
 </g>
 <g fill="#221f34">
  <path d="m502.89 1225c1.1042 0.4507 1.5445 1.3281 1.3177 2.6354-16.309 49.384-31.022 99.459-44.145 150.22 0.74975-10.202 2.5063-20.305 5.2709-30.308 11.367-41.339 23.886-82.19 37.556-122.55z"/>
 </g>
 <g fill="#571f3b">
  <path d="m771.71 1285.6c1.3139-0.0398 2.1929 0.6191 2.6355 1.9765 3.4724 7.1343 6.5468 14.382 9.2243 21.743h3.9532c-10.776 5.0656-21.759 9.8977-32.944 14.495 8.182-11.54 13.892-24.278 17.131-38.215z"/>
 </g>
 <g fill="#b67a42">
  <path d="m683.42 1309.3c-6.4159 1.451-12.126 4.3064-17.131 8.5655-7.2992 6.6467-14.767 13.015-22.402 19.107 2.3416-10.103 4.5371-20.205 6.5888-30.308 11.437-2.5803 22.418-1.7011 32.944 2.6355z"/>
 </g>
 <g fill="#141d34">
  <path d="m425.15 1312h6.5888c1.2479 10.63 3.0044 21.172 5.271 31.626v5.271c-3.0084-0.1424-5.6438-1.24-7.9065-3.2942-9.9055-7.0674-19.569-14.315-28.991-21.743 6.7535-7.1079 15.099-11.061 25.037-11.86z"/>
 </g>
 <g fill="#318686">
  <path d="m361.89 1319.9c-14.46 8.3438-28.515 17.129-42.168 26.355-0.8789 0-1.7565 3e-4 -2.6355 3e-4 1.8239-11.618 4.4594-23.037 7.9065-34.262 2.5209-2.1374 4.9363-3.455 7.2477-3.9531 1.406 0.9104 2.9438 1.5691 4.6121 1.9766-1.5958 1.1767-1.5958 2.2744 0 3.2942 3.1798-3.7911 5.5965-3.3523 7.2477 1.3178 0.54548-0.602 1.2044-1.0422 1.9766-1.3178 2.0029 1.779 2.8819 3.5356 2.6354 5.271 0.91199-0.6917 1.5708-1.5708 1.9766-2.6353 3.3998 2.3098 7.1331 3.6277 11.201 3.9531z"/>
 </g>
 <g fill="#3fabac">
  <path d="m326.31 1308c-0.80382 1.1738-1.2426 2.4917-1.3178 3.9531-3.4471 11.225-6.0826 22.644-7.9065 34.262-16.018-4.1761-31.832-8.5682-47.439-13.178 7.676-3.6172 15.144-7.5706 22.402-11.86 6.2791-2.4797 12.429-5.3342 18.448-8.5654 5.1576-1.8487 10.429-3.3867 15.813-4.6121z"/>
 </g>
 <g fill="#e6b669">
  <path d="m687.38 1279v64.57c-1.4785 0.8643-3.235 1.3032-5.2708 1.3179-12.645-2.2944-25.383-3.6121-38.215-3.9534 0.5509-0.9514 1.4284-1.6103 2.6355-1.9765-1.207-0.3663-2.0846-1.0252-2.6355-1.9766 7.635-6.092 15.103-12.461 22.402-19.107 5.0048-4.2591 10.715-7.1145 17.131-8.5655 2.1782-9.812 3.496-19.914 3.9532-30.308z"/>
 </g>
 <g fill="#c78e4e">
  <path d="m687.38 1313.3c13.127 10.711 25.207 22.57 36.238 35.579 0.6113-0.7827 0.83153-1.6616 0.6588-2.6355 1.7565 2.6355 1.7565 5.271 0 7.9065-4.8124-3.0136-10.083-5.4304-15.813-7.2476-7.1474-0.4759-14.175-1.5748-21.084-3.2945v-30.308z"/>
 </g>
 <g fill="#16132a">
  <path d="m502.89 1225c-13.67 40.361-26.189 81.212-37.556 122.55-2.7646 10.003-4.5212 20.106-5.2709 30.308 13.122-50.765 27.836-100.84 44.145-150.22 2.5841 9.0753 5.6584 17.861 9.2243 26.355 4.4896 13.029 8.4429 26.206 11.86 39.533-14.63 42.578-28.246 85.625-40.85 129.14h-5.271c-11.148 0.5927-22.13-0.2847-32.944-2.6358-2.1308-0.709-4.3276-1.1477-6.5888-1.3176 9.3442-56.736 19.227-113.4 29.649-169.99 2.9452-21.53 5.8008-43.052 8.5654-64.57 1.012-1.0053 1.6709-2.3232 1.9766-3.9532 8.73 14.386 16.418 29.32 23.061 44.804z"/>
 </g>
 <g fill="#e6be76">
  <path d="m650.48 1306.7c-2.0516 10.103-4.2472 20.205-6.5888 30.308 0.5509 0.9514 1.4284 1.6103 2.6355 1.9766-1.207 0.3662-2.0846 1.0251-2.6355 1.9765-13.029 4.0125-26.206 7.5271-39.533 10.542-1.576-9.3797-3.7728-18.604-6.5888-27.673v-6.5888c17.519-3.5081 35.089-7.0213 52.71-10.542z"/>
 </g>
 <g fill="#202d3c">
  <path d="m397.47 1325.1c-0.35321 2.1072 0.08697 3.8635 1.3178 5.271 0.43877 7.9065 0.8789 15.813 1.3177 23.72-12.82 0.56-25.559 1.8779-38.215 3.9528 1.6827-4.8611 3.0005-9.6933 3.9532-14.495-0.37555 2.3562 0.06329 4.5527 1.3178 6.5886 7.9185-6.1652 15.385-12.754 22.402-19.766 2.144-2.5879 4.7794-4.3448 7.9065-5.271z"/>
 </g>
 <g fill="#265762">
  <path d="m361.89 1319.9c2.1967 0 4.392 0 6.5888 3e-4 -1.3942 7.789-2.2732 15.696-2.6356 23.719-0.95276 4.8018-2.2705 9.634-3.9532 14.495-14.05-3.9516-28.105-7.905-42.168-11.86 13.653-9.2256 27.708-18.011 42.168-26.355z"/>
 </g>
 <g fill="#8f6045">
  <path d="m643.89 1340.9c12.832 0.3413 25.57 1.659 38.215 3.9534 2.0359-0.0147 3.7923-0.4536 5.2708-1.3179 6.9092 1.7197 13.937 2.8186 21.084 3.2945 5.7296 1.8172 11.001 4.234 15.813 7.2476-5.6848 1.0213-11.394 1.8987-17.131 2.6354-5.499 0.2517-10.99 0.6904-16.472 1.3176-4.8624-0.8696-9.2545-1.7485-13.178-2.6352-2.277 2.2319-1.618 3.77 1.9766 4.612-23.486 3.6751-47.206 4.3343-71.158 1.9768-0.91577-3.6633-2.2337-7.1779-3.9533-10.542 13.326-3.0152 26.504-6.5298 39.533-10.542z"/>
 </g>
 <g fill="#38565c">
  <path d="m400.11 1323.8c9.422 7.428 19.085 14.676 28.991 21.743 2.2626 2.0542 4.8981 3.1518 7.9065 3.2942v-5.271c0.96722 1.8156 1.8462 3.7924 2.6355 5.9299-13.185 1.6262-26.363 3.1626-39.533 4.6121-0.43879-7.9065-0.87892-15.813-1.3177-23.72-0.37433-2.5235 0.06457-4.7188 1.3177-6.5887z"/>
 </g>
 <g fill="#836451">
  <path d="m707.14 1356.8c-25.754 6.9922-52.109 9.8477-79.065 8.5654-5.0786-0.4665-10.131-1.1252-15.154-1.9765-1.4099 0.0366-2.5077 0.4758-3.2944 1.3176-1.1042-0.4505-1.5443-1.3281-1.3176-2.6353 23.953 2.3575 47.672 1.6983 71.158-1.9768-3.5946-0.842-4.2536-2.3801-1.9766-4.612 3.923 0.8867 8.315 1.7656 13.178 2.6352 5.4819-0.6272 10.973-1.0659 16.472-1.3176z"/>
 </g>
 <g fill="#79807f">
  <path d="m646.53 1418.7h32.944c-0.43872 1.3177-1.3176 2.1968-2.6354 2.6355-5.5648-1.9936-10.836-1.1147-15.813 2.6355-1.5957-1.0197-1.5957-2.1176 0-3.2944-2.6923-0.8433-4.8889-0.1843-6.5888 1.9768 0-0.8789-0.43884-1.3179-1.3178-1.3179-2.1967-0.8791-4.392-1.7566-6.5886-2.6355z"/>
 </g>
 <g fill="#d2815a">
  <path d="m614.9 1409.5c2.1361 2.2798 3.8939 4.9152 5.271 7.9065 2.0648 16.087-4.0837 27.507-18.449 34.262-4.0258-9.6181-7.979-19.501-11.86-29.649-0.44263-1.3574-1.3216-2.0163-2.6354-1.9768 9.1478-3.4919 18.372-7.0063 27.673-10.542z"/>
 </g>
 <g fill="#935547">
  <path d="m446.23 1420c10.813 2.3511 21.796 3.2285 32.944 2.6358-0.93427 1.1909-2.252 1.6298-3.9532 1.3176-0.2951 4.8479-0.7353 9.6801-1.3178 14.495-10.906 12.132-21.887 12.132-32.944 0 1.2638-6.3332 3.0203-12.483 5.2711-18.449z"/>
 </g>
 <g fill="#17171f">
  <path d="m620.17 1417.4c8.6681 1.2653 17.454 1.7041 26.355 1.3178 2.1966 0.8789 4.392 1.7564 6.5886 2.6355-3.977-0.2173-7.9302 0.0027-11.86 0.659-5.0232 4.2194-7.6586 9.2717-7.9065 15.154 1.6328-0.5825 2.9505-1.4614 3.9532-2.6355-0.97385 0.1726-1.8526-0.0476-2.6354-0.6589 5.1746-6.2818 11.763-10.016 19.766-11.201 1.6999-2.1611 3.8965-2.8201 6.5888-1.9768-1.5957 1.1768-1.5957 2.2747 0 3.2944 4.977-3.7502 10.248-4.6291 15.813-2.6355-23.392 15.49-47.111 30.425-71.159 44.804-1.8-4.5608-3.1178-9.3916-3.9532-14.495 14.365-6.7551 20.513-18.175 18.449-34.262z"/>
 </g>
 <g fill="#b6bdbd">
  <path d="m637.3 1434.5c3.3236-2.4526 6.618-5.0879 9.8833-7.9065 0.66797 1.9715 0.00914 3.5093-1.9767 4.6121-2.2626 2.0544-4.8981 3.1521-7.9066 3.2944z"/>
 </g>
 <g fill="#babcc0">
  <path d="m653.12 1421.3c0.879 0 1.3178 0.439 1.3178 1.3179-8.0028 1.1843-14.592 4.9189-19.766 11.201 0.78271 0.6113 1.6615 0.8315 2.6354 0.6589-1.0027 1.1741-2.3204 2.053-3.9532 2.6355 0.2479-5.8823 2.8833-10.935 7.9065-15.154 3.9296-0.6563 7.8828-0.8763 11.86-0.659z"/>
 </g>
 <g fill="#101126">
  <path d="m440.96 1438.5c11.057 12.132 22.038 12.132 32.944 0 4.7505 1.4546 9.5827 2.7725 14.495 3.9531-0.87898 0.879-1.7565 1.7566-2.6354 2.6356 1.0885 1.2531 1.3071 2.5708 0.65882 3.9531-2.6553-1.7683-5.5109-2.4273-8.5653-1.9766 2.1479 1.5984 4.5646 2.6961 7.2475 3.2945 7.2214 2.414 8.319 1.3149 3.2944-3.2945 1.3178-0.22 2.6355-0.4387 3.9532-0.6587 5.5214 2.1336 11.231 3.4512 17.131 3.9532-3.5237 1.978-3.3036 3.2956 0.65881 3.9533 2.0202-0.3596 3.9968-0.7988 5.93-1.3179 8.0289 2.9136 15.935 6.2078 23.72 9.8831 0.99096 0.8843 1.4309 1.9819 1.3177 3.2944h-105.42c-1.2808-1.1845-2.1585-2.7224-2.6355-4.612 1.5299-8.1148 4.1655-15.801 7.9065-23.061z"/>
 </g>
 <g fill="#e3ecf1">
  <path d="m696.6 1420c-29.212 16.579-57.764 34.148-85.654 52.71-3.9137-0.3237-5.6701-2.519-5.271-6.5884 24.048-14.378 47.767-29.313 71.159-44.804 1.3177-0.4387 2.1966-1.3178 2.6354-2.6355 4.2762-1.5918 8.4496-3.3483 12.519-5.271 3.0676 0.4177 5.4832 1.9556 7.2476 4.6121-1.207 0.3662-2.0847 1.0251-2.6355 1.9766z"/>
 </g>
 <g fill="#a4a5ba">
  <path d="m496.3 1450.3c1.9476-0.3453 3.7043 0.0937 5.271 1.3178-0.87909 0.4387-1.7566 0.8789-2.6356 1.3176-1.5984-0.3256-2.4774-1.2045-2.6355-2.6354z"/>
 </g>
 <g fill="#6e6f7f">
  <path d="m509.48 1450.3c2.5076 0.3898 4.7043 1.269 6.5888 2.6354-1.9332 0.5191-3.9098 0.9583-5.93 1.3179-3.9624-0.6577-4.1825-1.9753-0.65881-3.9533z"/>
 </g>
 <g fill="#e2e8ed">
  <path d="m435.69 1466.1h105.42v10.542h-108.06c-0.70636-4.2141 0.17261-7.7285 2.6355-10.542z"/>
 </g>
 <g fill="#323743">
  <path d="m543.74 1478h-112.01c0-0.8789 0.43883-1.3179 1.3177-1.3179h108.06c1.0725-2.8081 1.7315-5.8823 1.9767-9.2241 0.6548 3.4868 0.875 7.001 0.65884 10.542z"/>
 </g>
 <g fill="#10142d">
  <path d="m375.07 1478h15.813c13.826 1.0935 27.882 1.7524 42.168 1.9766 5.0944 1.5285 10.365 2.6262 15.813 3.2944 5.6768-0.2502 11.387-0.6907 17.131-1.3179 2.5617 0.908 5.1972 1.5669 7.9065 1.9768-7.7062 0.2276-15.174 0.8865-22.402 1.9766h-44.804c-17.784-1.281-35.794-2.1597-54.028-2.6357v-3.9534c7.7194 0.4245 15.187-0.0144 22.402-1.3174z"/>
 </g>
 <g fill="#0d0f22">
  <path d="m390.88 1478h134.41c0.10134 1.647 0.98024 2.7446 2.6355 3.2942-2.3141 0.2664-4.5095 0.9253-6.5888 1.9768 5.0245 0.8789 9.8554 1.7578 14.495 2.6355h-84.336c7.2278-1.0901 14.696-1.749 22.402-1.9766-2.7093-0.4099-5.3448-1.0688-7.9065-1.9768-5.7442 0.6272-11.454 1.0677-17.131 1.3179-5.4477-0.6682-10.719-1.7659-15.813-3.2944-14.286-0.2242-28.342-0.8831-42.168-1.9766z"/>
 </g>
 <g fill="#111729">
  <path d="m696.6 1420c4.8244-0.1976 6.1421 1.779 3.9533 5.9299-27.939 18.143-56.49 35.274-85.654 51.392 19.115 0.2227 38.003 0.8816 56.663 1.9766 9.9333 0.9143 21.353 2.6711 34.262 5.271-35.131 1.0056-70.27 1.4443-105.42 1.3181 0.11195-1.97-0.76565-3.2879-2.6355-3.9534-12.699 1.1675-25.438 0.9478-38.215-0.6589-1.207-0.3662-2.0846-1.0252-2.6355-1.9766 17.17 0.3374 34.301-0.1015 51.392-1.3176 0.03553-2.2388 0.91456-3.9971 2.6355-5.2715 27.89-18.562 56.442-36.131 85.654-52.71z"/>
 </g>
 <g fill="#0e122c">
  <path d="m525.29 1478h18.448c4.1179 1.29 8.51 1.7302 13.177 1.3176 0.55091 0.9514 1.4285 1.6104 2.6355 1.9766 12.777 1.6067 25.516 1.8264 38.215 0.6589 1.8698 0.6655 2.7474 1.9834 2.6355 3.9534h-64.57c-4.6399-0.8777-9.4707-1.7566-14.495-2.6355 2.0792-1.0515 4.2747-1.7104 6.5888-1.9768-1.6552-0.5496-2.5342-1.6472-2.6355-3.2942z"/>
 </g>
 <g fill="#13141d">
  <path d="m671.56 1479.3c41.731 0.4312 83.46 1.09 125.19 1.9767-30.291 1.6316-60.599 2.7292-90.925 3.2943-12.909-2.5999-24.328-4.3567-34.262-5.271z"/>
 </g>
 <g fill="#545e65">
  <path d="m281.51 1480.6c-0.43878 0.8791-0.87891 1.7568-1.3177 2.6357-4.4777 0.4216-8.8711-0.0173-13.177-1.3179 4.7531-1.3032 9.5853-1.7434 14.495-1.3178z"/>
 </g>
 <g fill="#222936">
  <path d="m375.07 1478c-7.2147 1.303-14.682 1.7419-22.402 1.3174v3.9534c18.234 0.476 36.243 1.3547 54.028 2.6357-42.172-0.7197-84.34-1.5974-126.5-2.6355 0.43878-0.8789 0.87891-1.7566 1.3177-2.6357 31.183-1.0003 62.369-1.878 93.56-2.6353z"/>
 </g>
</svg>
